<?xml version="1.0"?>
<svg xmlns="http://www.w3.org/2000/svg" viewBox="0 0 64 64" width="512" height="512"><g id="calculator"><path d="M29,20H5a3.009,3.009,0,0,0-3,3V59a3.009,3.009,0,0,0,3,3H29a3.009,3.009,0,0,0,3-3V23A3.009,3.009,0,0,0,29,20Zm1,39a1,1,0,0,1-1,1H5a1,1,0,0,1-1-1V23a1,1,0,0,1,1-1H29a1,1,0,0,1,1,1Z"/><path d="M27,24H7a1,1,0,0,0-1,1V39a1,1,0,0,0,1,1H27a1,1,0,0,0,1-1V25A1,1,0,0,0,27,24ZM26,38H8V26H26Z"/><path d="M12,42H7a1,1,0,0,0-1,1v5a1,1,0,0,0,1,1h5a1,1,0,0,0,1-1V43A1,1,0,0,0,12,42Zm-1,5H8V44h3Z"/><path d="M12,51H7a1,1,0,0,0-1,1v5a1,1,0,0,0,1,1h5a1,1,0,0,0,1-1V52A1,1,0,0,0,12,51Zm-1,5H8V53h3Z"/><path d="M20,42H15a1,1,0,0,0-1,1v5a1,1,0,0,0,1,1h5a1,1,0,0,0,1-1V43A1,1,0,0,0,20,42Zm-1,5H16V44h3Z"/><path d="M20,51H15a1,1,0,0,0-1,1v5a1,1,0,0,0,1,1h5a1,1,0,0,0,1-1V52A1,1,0,0,0,20,51Zm-1,5H16V53h3Z"/><path d="M27,49H23a1,1,0,0,0-1,1v7a1,1,0,0,0,1,1h4a1,1,0,0,0,1-1V50A1,1,0,0,0,27,49Zm-1,7H24V51h2Z"/><path d="M19,36h4a1,1,0,0,0,1-1V29a1,1,0,0,0-1-1H19a1,1,0,0,0-1,1v6A1,1,0,0,0,19,36Zm1-6h2v4H20Z"/><path d="M27,42H23a1,1,0,0,0-1,1v3a1,1,0,0,0,1,1h4a1,1,0,0,0,1-1V43A1,1,0,0,0,27,42Zm-1,3H24V44h2Z"/><path d="M47,2A15,15,0,1,0,62,17,15.018,15.018,0,0,0,47,2ZM59.95,16h-2a11.089,11.089,0,0,0-.97-3.6l1.73-1.01A13.022,13.022,0,0,1,59.95,16ZM54.34,6.28a13.244,13.244,0,0,1,3.38,3.38l-1.74,1a11.406,11.406,0,0,0-2.64-2.64ZM48,4.05a13.022,13.022,0,0,1,4.61,1.24L51.6,7.02A11.089,11.089,0,0,0,48,6.05Zm-2,0v2a11.089,11.089,0,0,0-3.6.97L41.39,5.29A13.022,13.022,0,0,1,46,4.05ZM39.66,6.28l1,1.74a11.406,11.406,0,0,0-2.64,2.64l-1.74-1A13.244,13.244,0,0,1,39.66,6.28Zm-4.37,5.11,1.73,1.01a11.089,11.089,0,0,0-.97,3.6h-2A13.022,13.022,0,0,1,35.29,11.39ZM34.05,18h2a11.089,11.089,0,0,0,.97,3.6l-1.73,1.01A13.022,13.022,0,0,1,34.05,18Zm5.61,9.72a13.244,13.244,0,0,1-3.38-3.38l1.74-1a11.406,11.406,0,0,0,2.64,2.64ZM46,29.95a13.022,13.022,0,0,1-4.61-1.24l1.01-1.73a11.089,11.089,0,0,0,3.6.97ZM38,17a9,9,0,1,1,9,9A9.014,9.014,0,0,1,38,17ZM48,29.95v-2a11.089,11.089,0,0,0,3.6-.97l1.01,1.73A13.022,13.022,0,0,1,48,29.95Zm6.34-2.23-1-1.74a11.406,11.406,0,0,0,2.64-2.64l1.74,1A13.244,13.244,0,0,1,54.34,27.72Zm4.37-5.11L56.98,21.6a11.089,11.089,0,0,0,.97-3.6h2A13.022,13.022,0,0,1,58.71,22.61Z"/><path d="M46,24h2V22a2,2,0,0,0,2-2V18a2,2,0,0,0-2-2H46V14h4V12H48V10H46v2a2,2,0,0,0-2,2v2a2,2,0,0,0,2,2h2v2H44v2h2Z"/><path d="M51,48a4,4,0,1,0-4,4A4,4,0,0,0,51,48Zm-6,0a2,2,0,1,1,2,2A2,2,0,0,1,45,48Z"/><path d="M61.24,50.03l-.67-.17.36-.59a1.014,1.014,0,0,0-.15-1.22l-2.83-2.83a1.014,1.014,0,0,0-1.22-.15l-.59.36-.17-.67a.982.982,0,0,0-.94-.75,1,1,0,0,0-.25-.96l-2.83-2.83a1.014,1.014,0,0,0-1.22-.15l-.59.36-.17-.67A1,1,0,0,0,49,39H45a1,1,0,0,0-.97.76l-.17.67-.59-.36a1.014,1.014,0,0,0-1.22.15l-2.83,2.83a1,1,0,0,0-.15,1.22l.36.59-.67.17A1,1,0,0,0,38,46v4a1,1,0,0,0,.76.97l.67.17-.36.59a1,1,0,0,0,.15,1.22l2.83,2.83a1.014,1.014,0,0,0,1.22.15l.59-.36.17.67a.982.982,0,0,0,.94.75,1,1,0,0,0,.25.96l2.83,2.83a1.014,1.014,0,0,0,1.22.15l.59-.36.17.67A1,1,0,0,0,51,62h4a1,1,0,0,0,.97-.76l.17-.67.59.36a1.014,1.014,0,0,0,1.22-.15l2.83-2.83a1.014,1.014,0,0,0,.15-1.22l-.36-.59.67-.17A1,1,0,0,0,62,55V51A1,1,0,0,0,61.24,50.03ZM54.96,52.7c.01.1.04.2.04.3a2.006,2.006,0,0,1-2,2,1.967,1.967,0,0,1-.24-.03l2.02-2.02A1.138,1.138,0,0,0,54.96,52.7Zm-9.48,1.08a1.007,1.007,0,0,0-.59-.68,1.019,1.019,0,0,0-.9.06l-1.08.65-1.72-1.72.64-1.08a.989.989,0,0,0,.07-.9,1.007,1.007,0,0,0-.68-.59L40,49.22V46.78l1.22-.3a1.007,1.007,0,0,0,.68-.59.989.989,0,0,0-.07-.9l-.64-1.08,1.72-1.72,1.08.64a.989.989,0,0,0,.9.07,1.007,1.007,0,0,0,.59-.68l.3-1.22h2.44l.3,1.22a1.007,1.007,0,0,0,.59.68.989.989,0,0,0,.9-.07l1.08-.64,1.72,1.72-.64,1.08a.989.989,0,0,0-.07.9,1.007,1.007,0,0,0,.68.59l1.22.3v2.44l-1.22.3a1.007,1.007,0,0,0-.68.59.989.989,0,0,0,.07.9l.64,1.08-1.72,1.72-1.08-.65a1.019,1.019,0,0,0-.9-.06,1.007,1.007,0,0,0-.59.68L48.22,55H45.78ZM60,54.22l-1.22.3a.984.984,0,0,0-.68.59.967.967,0,0,0,.06.89l.65,1.09-1.73,1.72L56,58.16a1,1,0,0,0-.89-.06.984.984,0,0,0-.59.68L54.22,60H51.78l-.3-1.22a.984.984,0,0,0-.59-.68.967.967,0,0,0-.89.06l-1.08.65-1.73-1.73.05-.08H49a1,1,0,0,0,.97-.76l.13-.5A3.931,3.931,0,0,0,53,57a4.006,4.006,0,0,0,2.95-6.71A.929.929,0,0,0,56,50V47.84l1.08-.65,1.73,1.72L58.16,50a.967.967,0,0,0-.06.89.984.984,0,0,0,.68.59l1.22.3Z"/><rect x="46" y="34" width="2" height="3"/><rect x="34" y="47" width="2" height="2"/><rect x="7" y="16" width="2" height="2"/><path d="M9,9H32V7H8A1,1,0,0,0,7,8v6H9Z"/></g></svg>
