<svg width="64" height="64" xmlns="http://www.w3.org/2000/svg" xmlns:svg="http://www.w3.org/2000/svg">
 <g class="layer">
  <title>Layer 1</title>
  <g id="calculator">
   <path fill="#ffffff" id="svg_1" d="m29,20l-24,0a3.009,3.009 0 0 0 -3,3l0,36a3.009,3.009 0 0 0 3,3l24,0a3.009,3.009 0 0 0 3,-3l0,-36a3.009,3.009 0 0 0 -3,-3zm1,39a1,1 0 0 1 -1,1l-24,0a1,1 0 0 1 -1,-1l0,-36a1,1 0 0 1 1,-1l24,0a1,1 0 0 1 1,1l0,36z"/>
   <path fill="#ffffff" id="svg_2" d="m27,24l-20,0a1,1 0 0 0 -1,1l0,14a1,1 0 0 0 1,1l20,0a1,1 0 0 0 1,-1l0,-14a1,1 0 0 0 -1,-1zm-1,14l-18,0l0,-12l18,0l0,12z"/>
   <path fill="#ffffff" id="svg_3" d="m12,42l-5,0a1,1 0 0 0 -1,1l0,5a1,1 0 0 0 1,1l5,0a1,1 0 0 0 1,-1l0,-5a1,1 0 0 0 -1,-1zm-1,5l-3,0l0,-3l3,0l0,3z"/>
   <path fill="#ffffff" id="svg_4" d="m12,51l-5,0a1,1 0 0 0 -1,1l0,5a1,1 0 0 0 1,1l5,0a1,1 0 0 0 1,-1l0,-5a1,1 0 0 0 -1,-1zm-1,5l-3,0l0,-3l3,0l0,3z"/>
   <path fill="#ffffff" id="svg_5" d="m20,42l-5,0a1,1 0 0 0 -1,1l0,5a1,1 0 0 0 1,1l5,0a1,1 0 0 0 1,-1l0,-5a1,1 0 0 0 -1,-1zm-1,5l-3,0l0,-3l3,0l0,3z"/>
   <path fill="#ffffff" id="svg_6" d="m20,51l-5,0a1,1 0 0 0 -1,1l0,5a1,1 0 0 0 1,1l5,0a1,1 0 0 0 1,-1l0,-5a1,1 0 0 0 -1,-1zm-1,5l-3,0l0,-3l3,0l0,3z"/>
   <path fill="#ffffff" id="svg_7" d="m27,49l-4,0a1,1 0 0 0 -1,1l0,7a1,1 0 0 0 1,1l4,0a1,1 0 0 0 1,-1l0,-7a1,1 0 0 0 -1,-1zm-1,7l-2,0l0,-5l2,0l0,5z"/>
   <path fill="#ffffff" id="svg_8" d="m19,36l4,0a1,1 0 0 0 1,-1l0,-6a1,1 0 0 0 -1,-1l-4,0a1,1 0 0 0 -1,1l0,6a1,1 0 0 0 1,1zm1,-6l2,0l0,4l-2,0l0,-4z"/>
   <path fill="#ffffff" id="svg_9" d="m27,42l-4,0a1,1 0 0 0 -1,1l0,3a1,1 0 0 0 1,1l4,0a1,1 0 0 0 1,-1l0,-3a1,1 0 0 0 -1,-1zm-1,3l-2,0l0,-1l2,0l0,1z"/>
   <path fill="#ffffff" id="svg_10" d="m47,2a15,15 0 1 0 15,15a15.018,15.018 0 0 0 -15,-15zm12.95,14l-2,0a11.089,11.089 0 0 0 -0.97,-3.6l1.73,-1.01a13.022,13.022 0 0 1 1.24,4.61zm-5.61,-9.72a13.244,13.244 0 0 1 3.38,3.38l-1.74,1a11.406,11.406 0 0 0 -2.64,-2.64l1,-1.74zm-6.34,-2.23a13.022,13.022 0 0 1 4.61,1.24l-1.01,1.73a11.089,11.089 0 0 0 -3.6,-0.97l0,-2zm-2,0l0,2a11.089,11.089 0 0 0 -3.6,0.97l-1.01,-1.73a13.022,13.022 0 0 1 4.61,-1.24zm-6.34,2.23l1,1.74a11.406,11.406 0 0 0 -2.64,2.64l-1.74,-1a13.244,13.244 0 0 1 3.38,-3.38zm-4.37,5.11l1.73,1.01a11.089,11.089 0 0 0 -0.97,3.6l-2,0a13.022,13.022 0 0 1 1.24,-4.61zm-1.24,6.61l2,0a11.089,11.089 0 0 0 0.97,3.6l-1.73,1.01a13.022,13.022 0 0 1 -1.24,-4.61zm5.61,9.72a13.244,13.244 0 0 1 -3.38,-3.38l1.74,-1a11.406,11.406 0 0 0 2.64,2.64l-1,1.74zm6.34,2.23a13.022,13.022 0 0 1 -4.61,-1.24l1.01,-1.73a11.089,11.089 0 0 0 3.6,0.97l0,2zm-8,-12.95a9,9 0 1 1 9,9a9.014,9.014 0 0 1 -9,-9zm10,12.95l0,-2a11.089,11.089 0 0 0 3.6,-0.97l1.01,1.73a13.022,13.022 0 0 1 -4.61,1.24zm6.34,-2.23l-1,-1.74a11.406,11.406 0 0 0 2.64,-2.64l1.74,1a13.244,13.244 0 0 1 -3.38,3.38zm4.37,-5.11l-1.73,-1.01a11.089,11.089 0 0 0 0.97,-3.6l2,0a13.022,13.022 0 0 1 -1.24,4.61z"/>
   <path fill="#ffffff" id="svg_11" d="m46,24l2,0l0,-2a2,2 0 0 0 2,-2l0,-2a2,2 0 0 0 -2,-2l-2,0l0,-2l4,0l0,-2l-2,0l0,-2l-2,0l0,2a2,2 0 0 0 -2,2l0,2a2,2 0 0 0 2,2l2,0l0,2l-4,0l0,2l2,0l0,2z"/>
   <path fill="#ffffff" id="svg_12" d="m51,48a4,4 0 1 0 -4,4a4,4 0 0 0 4,-4zm-6,0a2,2 0 1 1 2,2a2,2 0 0 1 -2,-2z"/>
   <path fill="#ffffff" id="svg_13" d="m61.24,50.03l-0.67,-0.17l0.36,-0.59a1.014,1.014 0 0 0 -0.15,-1.22l-2.83,-2.83a1.014,1.014 0 0 0 -1.22,-0.15l-0.59,0.36l-0.17,-0.67a0.982,0.982 0 0 0 -0.94,-0.75a1,1 0 0 0 -0.25,-0.96l-2.83,-2.83a1.014,1.014 0 0 0 -1.22,-0.15l-0.59,0.36l-0.17,-0.67a1,1 0 0 0 -0.97,-0.76l-4,0a1,1 0 0 0 -0.97,0.76l-0.17,0.67l-0.59,-0.36a1.014,1.014 0 0 0 -1.22,0.15l-2.83,2.83a1,1 0 0 0 -0.15,1.22l0.36,0.59l-0.67,0.17a1,1 0 0 0 -0.76,0.97l0,4a1,1 0 0 0 0.76,0.97l0.67,0.17l-0.36,0.59a1,1 0 0 0 0.15,1.22l2.83,2.83a1.014,1.014 0 0 0 1.22,0.15l0.59,-0.36l0.17,0.67a0.982,0.982 0 0 0 0.94,0.75a1,1 0 0 0 0.25,0.96l2.83,2.83a1.014,1.014 0 0 0 1.22,0.15l0.59,-0.36l0.17,0.67a1,1 0 0 0 0.97,0.76l4,0a1,1 0 0 0 0.97,-0.76l0.17,-0.67l0.59,0.36a1.014,1.014 0 0 0 1.22,-0.15l2.83,-2.83a1.014,1.014 0 0 0 0.15,-1.22l-0.36,-0.59l0.67,-0.17a1,1 0 0 0 0.76,-0.97l0,-4a1,1 0 0 0 -0.76,-0.97zm-6.28,2.67c0.01,0.1 0.04,0.2 0.04,0.3a2.006,2.006 0 0 1 -2,2a1.967,1.967 0 0 1 -0.24,-0.03l2.02,-2.02a1.138,1.138 0 0 0 0.18,-0.25zm-9.48,1.08a1.007,1.007 0 0 0 -0.59,-0.68a1.019,1.019 0 0 0 -0.9,0.06l-1.08,0.65l-1.72,-1.72l0.64,-1.08a0.989,0.989 0 0 0 0.07,-0.9a1.007,1.007 0 0 0 -0.68,-0.59l-1.22,-0.3l0,-2.44l1.22,-0.3a1.007,1.007 0 0 0 0.68,-0.59a0.989,0.989 0 0 0 -0.07,-0.9l-0.64,-1.08l1.72,-1.72l1.08,0.64a0.989,0.989 0 0 0 0.9,0.07a1.007,1.007 0 0 0 0.59,-0.68l0.3,-1.22l2.44,0l0.3,1.22a1.007,1.007 0 0 0 0.59,0.68a0.989,0.989 0 0 0 0.9,-0.07l1.08,-0.64l1.72,1.72l-0.64,1.08a0.989,0.989 0 0 0 -0.07,0.9a1.007,1.007 0 0 0 0.68,0.59l1.22,0.3l0,2.44l-1.22,0.3a1.007,1.007 0 0 0 -0.68,0.59a0.989,0.989 0 0 0 0.07,0.9l0.64,1.08l-1.72,1.72l-1.08,-0.65a1.019,1.019 0 0 0 -0.9,-0.06a1.007,1.007 0 0 0 -0.59,0.68l-0.3,1.22l-2.44,0l-0.3,-1.22zm14.52,0.44l-1.22,0.3a0.984,0.984 0 0 0 -0.68,0.59a0.967,0.967 0 0 0 0.06,0.89l0.65,1.09l-1.73,1.72l-1.08,-0.65a1,1 0 0 0 -0.89,-0.06a0.984,0.984 0 0 0 -0.59,0.68l-0.3,1.22l-2.44,0l-0.3,-1.22a0.984,0.984 0 0 0 -0.59,-0.68a0.967,0.967 0 0 0 -0.89,0.06l-1.08,0.65l-1.73,-1.73l0.05,-0.08l1.76,0a1,1 0 0 0 0.97,-0.76l0.13,-0.5a3.931,3.931 0 0 0 2.9,1.26a4.006,4.006 0 0 0 2.95,-6.71a0.929,0.929 0 0 0 0.05,-0.29l0,-2.16l1.08,-0.65l1.73,1.72l-0.65,1.09a0.967,0.967 0 0 0 -0.06,0.89a0.984,0.984 0 0 0 0.68,0.59l1.22,0.3l0,2.44z"/>
   <rect fill="#ffffff" id="svg_14" height="3" width="2" y="34" x="46"/>
   <rect fill="#ffffff" id="svg_15" height="2" width="2" y="47" x="34"/>
   <rect fill="#ffffff" id="svg_16" height="2" width="2" y="16" x="7"/>
   <path fill="#ffffff" id="svg_17" d="m9,9l23,0l0,-2l-24,0a1,1 0 0 0 -1,1l0,6l2,0l0,-5z"/>
  </g>
 </g>
</svg>