<?xml version="1.0" encoding="utf-8"?>
<!-- Generator: Adobe Illustrator 23.0.1, SVG Export Plug-In . SVG Version: 6.00 Build 0)  -->
<svg version="1.1" id="Layer_1" xmlns="http://www.w3.org/2000/svg" xmlns:xlink="http://www.w3.org/1999/xlink" x="0px" y="0px"
	 viewBox="0 0 1110.2 528.7" style="enable-background:new 0 0 1110.2 528.7;" xml:space="preserve">
<style type="text/css">
	.st0{fill:#009EE0;}
	.st1{fill:#BD1220;}
	.st2{fill:#172983;}
	.st3{fill:#1A171B;}
	.st4{fill:#FFED00;}
	.st5{fill:#009036;}
	.st6{fill:#F29400;}
	.st7{fill:#FFFFFF;}
	.st8{fill:#581212;}
	.st9{fill:#00672E;}
</style>
<g>
	<g>
		<path d="M134.3,213.1l-2.2,6.8h-2.9l7.3-21.6h3.4l7.4,21.6h-3l-2.3-6.8H134.3z M141.3,210.9l-2.1-6.2c-0.5-1.4-0.8-2.7-1.1-3.9
			H138c-0.3,1.3-0.7,2.6-1.1,3.9l-2.1,6.2H141.3z"/>
		<path d="M149.7,217c0.8,0.5,2.3,1.1,3.7,1.1c2,0,3-1,3-2.3s-0.8-2.1-2.9-2.8c-2.8-1-4.1-2.5-4.1-4.4c0-2.5,2-4.5,5.3-4.5
			c1.6,0,2.9,0.4,3.8,1l-0.7,2c-0.6-0.4-1.7-0.9-3.2-0.9c-1.7,0-2.6,1-2.6,2.1c0,1.3,0.9,1.9,2.9,2.6c2.7,1,4.1,2.4,4.1,4.7
			c0,2.7-2.1,4.6-5.8,4.6c-1.7,0-3.3-0.4-4.4-1.1L149.7,217z"/>
		<path d="M162.4,217c0.8,0.5,2.3,1.1,3.7,1.1c2,0,3-1,3-2.3s-0.8-2.1-2.9-2.8c-2.8-1-4.1-2.5-4.1-4.4c0-2.5,2-4.5,5.3-4.5
			c1.6,0,2.9,0.4,3.8,1l-0.7,2c-0.6-0.4-1.7-0.9-3.2-0.9c-1.7,0-2.6,1-2.6,2.1c0,1.3,0.9,1.9,2.9,2.6c2.7,1,4.1,2.4,4.1,4.7
			c0,2.7-2.1,4.6-5.8,4.6c-1.7,0-3.3-0.4-4.4-1.1L162.4,217z"/>
		<path d="M189.4,212c0,5.7-4,8.2-7.7,8.2c-4.2,0-7.4-3.1-7.4-8c0-5.2,3.4-8.2,7.7-8.2C186.4,204.1,189.4,207.3,189.4,212z
			 M177.2,212.2c0,3.4,2,6,4.7,6s4.7-2.5,4.7-6c0-2.6-1.3-6-4.6-6C178.6,206.2,177.2,209.2,177.2,212.2z"/>
		<path d="M204,219.3c-0.7,0.4-2.4,0.9-4.4,0.9c-4.7,0-7.7-3.2-7.7-7.9c0-4.8,3.3-8.2,8.3-8.2c1.7,0,3.1,0.4,3.9,0.8l-0.6,2.2
			c-0.7-0.4-1.7-0.7-3.3-0.7c-3.6,0-5.5,2.6-5.5,5.9c0,3.6,2.3,5.8,5.4,5.8c1.6,0,2.7-0.4,3.5-0.8L204,219.3z"/>
		<path d="M210.5,200.1c0,1-0.7,1.7-1.8,1.7c-1,0-1.7-0.8-1.7-1.7c0-1,0.7-1.8,1.8-1.8C209.8,198.3,210.5,199.1,210.5,200.1z
			 M207.3,219.9v-15.5h2.8v15.5H207.3z"/>
		<path d="M223.4,219.9l-0.2-2h-0.1c-0.9,1.2-2.5,2.3-4.7,2.3c-3.1,0-4.7-2.2-4.7-4.4c0-3.7,3.3-5.8,9.3-5.8v-0.3
			c0-1.3-0.4-3.6-3.5-3.6c-1.4,0-2.9,0.4-4,1.2l-0.6-1.9c1.3-0.8,3.1-1.4,5.1-1.4c4.7,0,5.9,3.2,5.9,6.3v5.8c0,1.3,0.1,2.7,0.3,3.7
			L223.4,219.9L223.4,219.9z M223,212c-3.1-0.1-6.6,0.5-6.6,3.5c0,1.8,1.2,2.7,2.7,2.7c2,0,3.3-1.3,3.7-2.6c0.1-0.3,0.2-0.6,0.2-0.9
			L223,212L223,212z"/>
		<path d="M233.5,200v4.4h4v2.1h-4v8.4c0,1.9,0.5,3,2.1,3c0.7,0,1.3-0.1,1.6-0.2l0.1,2.1c-0.5,0.2-1.4,0.4-2.5,0.4
			c-1.3,0-2.4-0.4-3-1.2c-0.8-0.8-1.1-2.2-1.1-4v-8.4h-2.4v-2.1h2.4v-3.7L233.5,200z"/>
		<path d="M243.8,200.1c0,1-0.7,1.7-1.8,1.7c-1,0-1.7-0.8-1.7-1.7c0-1,0.7-1.8,1.8-1.8C243.2,198.3,243.8,199.1,243.8,200.1z
			 M240.7,219.9v-15.5h2.8v15.5H240.7z"/>
		<path d="M262.2,212c0,5.7-4,8.2-7.7,8.2c-4.2,0-7.4-3.1-7.4-8c0-5.2,3.4-8.2,7.7-8.2C259.2,204.1,262.2,207.3,262.2,212z
			 M249.9,212.2c0,3.4,2,6,4.7,6s4.7-2.5,4.7-6c0-2.6-1.3-6-4.6-6C251.4,206.2,249.9,209.2,249.9,212.2z"/>
		<path d="M265.8,208.6c0-1.6,0-2.9-0.1-4.2h2.5l0.2,2.6h0.1c0.8-1.5,2.6-2.9,5.1-2.9c2.1,0,5.5,1.3,5.5,6.6v9.2h-2.8V211
			c0-2.5-0.9-4.6-3.6-4.6c-1.9,0-3.3,1.3-3.8,2.9c-0.1,0.4-0.2,0.8-0.2,1.3v9.3h-2.8v-11.3L265.8,208.6L265.8,208.6z"/>
	</g>
	<g>
		<path d="M45.5,296.3V308c0,0.9,0,1.8,0.1,2.5H44l-0.1-1.7l0,0c-0.5,1.1-1.7,1.9-3.3,1.9c-2.3,0-4.1-2-4.1-4.9c0-3.2,2-5.2,4.3-5.2
			c1.5,0,2.5,0.7,2.9,1.5l0,0v-5.8H45.5z M43.8,304.8c0-0.2,0-0.5-0.1-0.7c-0.3-1.1-1.2-2-2.5-2c-1.8,0-2.9,1.6-2.9,3.7
			c0,2,1,3.6,2.9,3.6c1.2,0,2.3-0.8,2.6-2.1c0.1-0.2,0.1-0.5,0.1-0.8L43.8,304.8L43.8,304.8z"/>
		<path d="M50.8,296.8c-0.5,1.7-1.3,3.8-1.9,4.7l-1.1,0.1c0.4-1.2,1-3.3,1.2-4.7L50.8,296.8z"/>
		<path d="M57.7,310.6l-0.1-1.2h-0.1c-0.5,0.8-1.6,1.4-3,1.4c-2,0-3-1.4-3-2.8c0-2.3,2.1-3.6,5.8-3.6v-0.2c0-0.8-0.2-2.2-2.2-2.2
			c-0.9,0-1.8,0.3-2.5,0.7l-0.4-1.2c0.8-0.5,2-0.9,3.2-0.9c3,0,3.7,2,3.7,4v3.6c0,0.8,0,1.7,0.2,2.3h-1.6
			C57.7,310.5,57.7,310.6,57.7,310.6z M57.4,305.6c-1.9,0-4.1,0.3-4.1,2.2c0,1.1,0.8,1.7,1.7,1.7c1.3,0,2.1-0.8,2.3-1.6
			c0.1-0.2,0.1-0.4,0.1-0.6V305.6z"/>
		<path d="M63.9,298.1c0,0.6-0.4,1.1-1.1,1.1c-0.6,0-1.1-0.5-1.1-1.1s0.5-1.1,1.1-1.1C63.5,297,63.9,297.5,63.9,298.1z M62,310.6
			v-9.7h1.8v9.7H62z"/>
		<path d="M75,296.3V308c0,0.9,0,1.8,0.1,2.5h-1.6l-0.1-1.7l0,0c-0.5,1.1-1.7,1.9-3.3,1.9c-2.3,0-4.1-2-4.1-4.9c0-3.2,2-5.2,4.3-5.2
			c1.5,0,2.5,0.7,2.9,1.5l0,0v-5.8H75z M73.3,304.8c0-0.2,0-0.5-0.1-0.7c-0.3-1.1-1.2-2-2.5-2c-1.8,0-2.9,1.6-2.9,3.7
			c0,2,1,3.6,2.9,3.6c1.2,0,2.3-0.8,2.6-2.1c0.1-0.2,0.1-0.5,0.1-0.8L73.3,304.8L73.3,304.8z"/>
		<path d="M78.9,306c0,2.4,1.6,3.4,3.3,3.4c1.3,0,2-0.2,2.7-0.5l0.3,1.3c-0.6,0.3-1.7,0.6-3.2,0.6c-3,0-4.8-2-4.8-4.9
			s1.7-5.2,4.5-5.2c3.2,0,4,2.8,4,4.6c0,0.4,0,0.6-0.1,0.8L78.9,306L78.9,306z M84.1,304.8c0-1.1-0.5-2.9-2.4-2.9
			c-1.8,0-2.6,1.6-2.7,2.9H84.1z"/>
		<path d="M97.6,310.6l-0.1-1.2h-0.1c-0.5,0.8-1.6,1.4-3,1.4c-2,0-3-1.4-3-2.8c0-2.3,2.1-3.6,5.8-3.6v-0.2c0-0.8-0.2-2.2-2.2-2.2
			c-0.9,0-1.8,0.3-2.5,0.7l-0.4-1.2c0.8-0.5,2-0.9,3.2-0.9c3,0,3.7,2,3.7,4v3.6c0,0.8,0,1.7,0.2,2.3h-1.6V310.6z M97.3,305.6
			c-1.9,0-4.1,0.3-4.1,2.2c0,1.1,0.8,1.7,1.7,1.7c1.3,0,2.1-0.8,2.3-1.6c0.1-0.2,0.1-0.4,0.1-0.6V305.6z"/>
		<path d="M109.9,307.9c0,1,0,1.9,0.1,2.6h-1.6l-0.1-1.6l0,0c-0.5,0.8-1.5,1.8-3.2,1.8c-1.5,0-3.3-0.8-3.3-4.2v-5.7h1.8v5.4
			c0,1.8,0.6,3.1,2.2,3.1c1.2,0,2-0.8,2.3-1.6c0.1-0.3,0.2-0.6,0.2-0.9v-5.9h1.8v7L109.9,307.9L109.9,307.9z"/>
		<path d="M113.7,300.9l1.4,2.1c0.4,0.5,0.7,1,1,1.6h0.1c0.3-0.6,0.6-1.1,1-1.6l1.4-2.1h1.9l-3.3,4.7l3.4,5h-2l-1.4-2.2
			c-0.4-0.6-0.7-1.1-1-1.7l0,0c-0.3,0.6-0.7,1.1-1,1.7l-1.4,2.2h-1.9l3.4-4.9L112,301h1.7V300.9z"/>
		<path d="M126.4,304c0-1.2,0-2.2-0.1-3.2h1.6l0.1,1.7l0,0c0.7-1.2,1.9-1.9,3.4-1.9c2.3,0,4.1,2,4.1,4.9c0,3.5-2.1,5.2-4.4,5.2
			c-1.3,0-2.4-0.6-3-1.5l0,0v5.3h-1.7C126.4,314.5,126.4,304,126.4,304z M128.1,306.6c0,0.3,0,0.5,0.1,0.7c0.3,1.2,1.4,2.1,2.6,2.1
			c1.9,0,2.9-1.5,2.9-3.7c0-1.9-1-3.6-2.9-3.6c-1.2,0-2.3,0.9-2.7,2.2c-0.1,0.2-0.1,0.5-0.1,0.7L128.1,306.6L128.1,306.6z"/>
		<path d="M138.7,306c0,2.4,1.6,3.4,3.3,3.4c1.3,0,2-0.2,2.7-0.5l0.3,1.3c-0.6,0.3-1.7,0.6-3.2,0.6c-3,0-4.8-2-4.8-4.9
			s1.7-5.2,4.5-5.2c3.2,0,4,2.8,4,4.6c0,0.4,0,0.6-0.1,0.8L138.7,306L138.7,306z M143.9,304.8c0-1.1-0.5-2.9-2.4-2.9
			c-1.8,0-2.6,1.6-2.7,2.9H143.9z"/>
		<path d="M147.8,303.9c0-1.1,0-2.1-0.1-3h1.5l0.1,1.9h0.1c0.4-1.3,1.5-2.1,2.7-2.1c0.2,0,0.3,0,0.5,0.1v1.7c-0.2,0-0.4-0.1-0.6-0.1
			c-1.2,0-2.1,0.9-2.4,2.3c0,0.2-0.1,0.5-0.1,0.8v5.2h-1.7V303.9z"/>
		<path d="M154.1,308.8c0.5,0.3,1.4,0.7,2.3,0.7c1.3,0,1.9-0.6,1.9-1.4s-0.5-1.3-1.8-1.8c-1.7-0.6-2.6-1.6-2.6-2.7
			c0-1.6,1.3-2.8,3.3-2.8c1,0,1.8,0.3,2.4,0.6l-0.4,1.3c-0.4-0.2-1.1-0.6-2-0.6c-1,0-1.6,0.6-1.6,1.3c0,0.8,0.6,1.2,1.8,1.6
			c1.7,0.6,2.5,1.5,2.5,2.9c0,1.7-1.3,2.9-3.6,2.9c-1.1,0-2-0.3-2.7-0.7L154.1,308.8z"/>
		<path d="M171,305.6c0,3.6-2.5,5.1-4.8,5.1c-2.6,0-4.6-1.9-4.6-5c0-3.2,2.1-5.1,4.8-5.1C169.1,300.6,171,302.7,171,305.6z
			 M163.3,305.7c0,2.1,1.2,3.7,2.9,3.7s2.9-1.6,2.9-3.8c0-1.6-0.8-3.7-2.9-3.7C164.2,302,163.3,303.9,163.3,305.7z"/>
		<path d="M173.2,303.5c0-1,0-1.8-0.1-2.6h1.6l0.1,1.6l0,0c0.5-0.9,1.6-1.8,3.2-1.8c1.3,0,3.4,0.8,3.4,4.1v5.8h-1.8V305
			c0-1.6-0.6-2.9-2.2-2.9c-1.2,0-2.1,0.8-2.4,1.8c-0.1,0.2-0.1,0.5-0.1,0.8v5.8h-1.8v-7L173.2,303.5L173.2,303.5z"/>
		<path d="M184.3,303.5c0-1,0-1.8-0.1-2.6h1.6l0.1,1.6l0,0c0.5-0.9,1.6-1.8,3.2-1.8c1.3,0,3.4,0.8,3.4,4.1v5.8h-1.8V305
			c0-1.6-0.6-2.9-2.2-2.9c-1.2,0-2.1,0.8-2.4,1.8c-0.1,0.2-0.1,0.5-0.1,0.8v5.8h-1.8v-7L184.3,303.5L184.3,303.5z"/>
		<path d="M196.4,306c0,2.4,1.6,3.4,3.3,3.4c1.3,0,2-0.2,2.7-0.5l0.3,1.3c-0.6,0.3-1.7,0.6-3.2,0.6c-3,0-4.8-2-4.8-4.9
			s1.7-5.2,4.5-5.2c3.2,0,4,2.8,4,4.6c0,0.4,0,0.6-0.1,0.8L196.4,306L196.4,306z M201.5,304.8c0-1.1-0.5-2.9-2.4-2.9
			c-1.8,0-2.6,1.6-2.7,2.9H201.5z"/>
		<path d="M205.2,308.8c0.5,0.3,1.4,0.7,2.3,0.7c1.3,0,1.9-0.6,1.9-1.4s-0.5-1.3-1.8-1.8c-1.7-0.6-2.6-1.6-2.6-2.7
			c0-1.6,1.3-2.8,3.3-2.8c1,0,1.8,0.3,2.4,0.6l-0.4,1.3c-0.4-0.2-1.1-0.6-2-0.6c-1,0-1.6,0.6-1.6,1.3c0,0.8,0.6,1.2,1.8,1.6
			c1.7,0.6,2.5,1.5,2.5,2.9c0,1.7-1.3,2.9-3.6,2.9c-1.1,0-2-0.3-2.7-0.7L205.2,308.8z"/>
		<path d="M222.9,310.6l-0.1-1.2h-0.1c-0.5,0.8-1.6,1.4-3,1.4c-2,0-3-1.4-3-2.8c0-2.3,2.1-3.6,5.8-3.6v-0.2c0-0.8-0.2-2.2-2.2-2.2
			c-0.9,0-1.8,0.3-2.5,0.7l-0.4-1.2c0.8-0.5,2-0.9,3.2-0.9c3,0,3.7,2,3.7,4v3.6c0,0.8,0,1.7,0.2,2.3h-1.6L222.9,310.6L222.9,310.6z
			 M222.7,305.6c-1.9,0-4.1,0.3-4.1,2.2c0,1.1,0.8,1.7,1.7,1.7c1.3,0,2.1-0.8,2.3-1.6c0.1-0.2,0.1-0.4,0.1-0.6V305.6z"/>
		<path d="M229.3,298.1v2.8h2.5v1.3h-2.5v5.2c0,1.2,0.3,1.9,1.3,1.9c0.5,0,0.8-0.1,1-0.1l0.1,1.3c-0.3,0.1-0.9,0.2-1.6,0.2
			c-0.8,0-1.5-0.3-1.9-0.7c-0.5-0.5-0.7-1.4-0.7-2.5v-5.3H226v-1.3h1.5v-2.3L229.3,298.1z"/>
		<path d="M235.9,298.1v2.8h2.5v1.3h-2.5v5.2c0,1.2,0.3,1.9,1.3,1.9c0.5,0,0.8-0.1,1-0.1l0.1,1.3c-0.3,0.1-0.9,0.2-1.6,0.2
			c-0.8,0-1.5-0.3-1.9-0.7c-0.5-0.5-0.7-1.4-0.7-2.5v-5.3h-1.5v-1.3h1.5v-2.3L235.9,298.1z"/>
		<path d="M241.2,306c0,2.4,1.6,3.4,3.3,3.4c1.3,0,2-0.2,2.7-0.5l0.3,1.3c-0.6,0.3-1.7,0.6-3.2,0.6c-3,0-4.8-2-4.8-4.9
			s1.7-5.2,4.5-5.2c3.2,0,4,2.8,4,4.6c0,0.4,0,0.6-0.1,0.8L241.2,306L241.2,306z M246.4,304.8c0-1.1-0.5-2.9-2.4-2.9
			c-1.8,0-2.6,1.6-2.7,2.9H246.4z"/>
		<path d="M252.2,298.1c0,0.6-0.4,1.1-1.1,1.1c-0.6,0-1.1-0.5-1.1-1.1s0.5-1.1,1.1-1.1C251.8,297,252.2,297.5,252.2,298.1z
			 M250.3,310.6v-9.7h1.8v9.7H250.3z"/>
		<path d="M255,303.5c0-1,0-1.8-0.1-2.6h1.6l0.1,1.6l0,0c0.5-0.9,1.6-1.8,3.2-1.8c1.3,0,3.4,0.8,3.4,4.1v5.8h-1.8V305
			c0-1.6-0.6-2.9-2.2-2.9c-1.2,0-2.1,0.8-2.4,1.8c-0.1,0.2-0.1,0.5-0.1,0.8v5.8H255V303.5z"/>
		<path d="M268.1,298.1v2.8h2.5v1.3h-2.5v5.2c0,1.2,0.3,1.9,1.3,1.9c0.5,0,0.8-0.1,1-0.1l0.1,1.3c-0.3,0.1-0.9,0.2-1.6,0.2
			c-0.8,0-1.5-0.3-1.9-0.7c-0.5-0.5-0.7-1.4-0.7-2.5v-5.3h-1.5v-1.3h1.5v-2.3L268.1,298.1z"/>
		<path d="M273.5,306c0,2.4,1.6,3.4,3.3,3.4c1.3,0,2-0.2,2.7-0.5l0.3,1.3c-0.6,0.3-1.7,0.6-3.2,0.6c-3,0-4.8-2-4.8-4.9
			s1.7-5.2,4.5-5.2c3.2,0,4,2.8,4,4.6c0,0.4,0,0.6-0.1,0.8L273.5,306L273.5,306z M278.6,304.8c0-1.1-0.5-2.9-2.4-2.9
			c-1.8,0-2.6,1.6-2.7,2.9H278.6z"/>
		<path d="M282.3,308.8c0.5,0.3,1.4,0.7,2.3,0.7c1.3,0,1.9-0.6,1.9-1.4s-0.5-1.3-1.8-1.8c-1.7-0.6-2.6-1.6-2.6-2.7
			c0-1.6,1.3-2.8,3.3-2.8c1,0,1.8,0.3,2.4,0.6l-0.4,1.3c-0.4-0.2-1.1-0.6-2-0.6c-1,0-1.6,0.6-1.6,1.3c0,0.8,0.6,1.2,1.8,1.6
			c1.7,0.6,2.5,1.5,2.5,2.9c0,1.7-1.3,2.9-3.6,2.9c-1.1,0-2-0.3-2.7-0.7L282.3,308.8z"/>
		<path d="M303,296.3V308c0,0.9,0,1.8,0.1,2.5h-1.6l-0.1-1.7l0,0c-0.5,1.1-1.7,1.9-3.3,1.9c-2.3,0-4.1-2-4.1-4.9
			c0-3.2,2-5.2,4.3-5.2c1.5,0,2.5,0.7,2.9,1.5l0,0v-5.8H303z M301.3,304.8c0-0.2,0-0.5-0.1-0.7c-0.3-1.1-1.2-2-2.5-2
			c-1.8,0-2.9,1.6-2.9,3.7c0,2,1,3.6,2.9,3.6c1.2,0,2.3-0.8,2.6-2.1c0.1-0.2,0.1-0.5,0.1-0.8v-1.7H301.3z"/>
		<path d="M306.9,306c0,2.4,1.6,3.4,3.3,3.4c1.3,0,2-0.2,2.7-0.5l0.3,1.3c-0.6,0.3-1.7,0.6-3.2,0.6c-3,0-4.8-2-4.8-4.9
			s1.7-5.2,4.5-5.2c3.2,0,4,2.8,4,4.6c0,0.4,0,0.6-0.1,0.8L306.9,306L306.9,306z M312.1,304.8c0-1.1-0.5-2.9-2.4-2.9
			c-1.8,0-2.6,1.6-2.7,2.9H312.1z"/>
		<path d="M327.1,310.2c-0.5,0.2-1.5,0.6-2.8,0.6c-2.9,0-4.8-2-4.8-4.9c0-3,2-5.1,5.2-5.1c1,0,2,0.3,2.4,0.5l-0.4,1.4
			c-0.4-0.2-1.1-0.5-2-0.5c-2.2,0-3.4,1.6-3.4,3.7c0,2.2,1.4,3.6,3.4,3.6c1,0,1.7-0.3,2.2-0.5L327.1,310.2z"/>
		<path d="M334.5,310.6l-0.1-1.2h-0.1c-0.5,0.8-1.6,1.4-3,1.4c-2,0-3-1.4-3-2.8c0-2.3,2.1-3.6,5.8-3.6v-0.2c0-0.8-0.2-2.2-2.2-2.2
			c-0.9,0-1.8,0.3-2.5,0.7l-0.4-1.2c0.8-0.5,2-0.9,3.2-0.9c3,0,3.7,2,3.7,4v3.6c0,0.8,0,1.7,0.2,2.3h-1.6V310.6z M334.3,305.6
			c-1.9,0-4.1,0.3-4.1,2.2c0,1.1,0.8,1.7,1.7,1.7c1.3,0,2.1-0.8,2.3-1.6c0.1-0.2,0.1-0.4,0.1-0.6V305.6z"/>
		<path d="M338.8,303.5c0-1,0-1.8-0.1-2.6h1.6l0.1,1.6l0,0c0.5-0.9,1.6-1.8,3.2-1.8c1.3,0,3.4,0.8,3.4,4.1v5.8h-1.8V305
			c0-1.6-0.6-2.9-2.2-2.9c-1.2,0-2.1,0.8-2.4,1.8c-0.1,0.2-0.1,0.5-0.1,0.8v5.8h-1.8L338.8,303.5L338.8,303.5z"/>
		<path d="M356.8,310.2c-0.5,0.2-1.5,0.6-2.8,0.6c-2.9,0-4.8-2-4.8-4.9c0-3,2-5.1,5.2-5.1c1,0,2,0.3,2.4,0.5l-0.4,1.4
			c-0.4-0.2-1.1-0.5-2-0.5c-2.2,0-3.4,1.6-3.4,3.7c0,2.2,1.4,3.6,3.4,3.6c1,0,1.7-0.3,2.2-0.5L356.8,310.2z"/>
		<path d="M359.7,306c0,2.4,1.6,3.4,3.3,3.4c1.3,0,2-0.2,2.7-0.5l0.3,1.3c-0.6,0.3-1.7,0.6-3.2,0.6c-3,0-4.8-2-4.8-4.9
			s1.7-5.2,4.5-5.2c3.2,0,4,2.8,4,4.6c0,0.4,0,0.6-0.1,0.8L359.7,306L359.7,306z M364.9,304.8c0-1.1-0.5-2.9-2.4-2.9
			c-1.8,0-2.6,1.6-2.7,2.9H364.9z"/>
		<path d="M368.8,303.9c0-1.1,0-2.1-0.1-3h1.5l0.1,1.9h0.1c0.4-1.3,1.5-2.1,2.7-2.1c0.2,0,0.3,0,0.5,0.1v1.7c-0.2,0-0.4-0.1-0.6-0.1
			c-1.2,0-2.1,0.9-2.4,2.3c0,0.2-0.1,0.5-0.1,0.8v5.2h-1.7V303.9z"/>
	</g>
	<g>
		<path d="M87.1,248.4c1.5-5.4,4.2-12.3,6-15.2l3.6-0.4c-1.4,3.8-3.1,10.4-3.8,15L87.1,248.4z M96.7,248.4c1.4-5.4,4.2-12.3,6-15.2
			l3.6-0.4c-1.4,3.8-3.1,10.4-3.8,15L96.7,248.4z"/>
		<path d="M134.8,256.4H118V272h18.7v4.7h-24.3v-43.1h23.3v4.7H118v13.6h16.8V256.4z"/>
		<path d="M143.8,231.2h5.6v45.4h-5.6V231.2z"/>
		<path d="M172.6,233.5h23.2v4.7h-17.7v14.3h16.3v4.6h-16.3v19.5h-5.6v-43.1H172.6z"/>
		<path d="M204.7,262.1c0.1,7.6,5,10.8,10.6,10.8c4,0,6.5-0.7,8.6-1.6l1,4c-2,0.9-5.4,1.9-10.3,1.9c-9.5,0-15.2-6.3-15.2-15.6
			c0-9.3,5.5-16.7,14.5-16.7c10.1,0,12.8,8.9,12.8,14.6c0,1.2-0.1,2-0.2,2.6L204.7,262.1L204.7,262.1z M221.3,258.1
			c0.1-3.6-1.5-9.2-7.8-9.2c-5.7,0-8.2,5.2-8.6,9.2H221.3z"/>
		<path d="M260.4,231.2v37.4c0,2.8,0.1,5.9,0.3,8h-5.1l-0.3-5.4h-0.1c-1.7,3.5-5.5,6.1-10.6,6.1c-7.5,0-13.2-6.3-13.2-15.7
			c-0.1-10.3,6.3-16.6,13.9-16.6c4.7,0,7.9,2.2,9.3,4.7h0.1v-18.5L260.4,231.2L260.4,231.2z M254.8,258.2c0-0.7-0.1-1.7-0.3-2.4
			c-0.8-3.6-3.9-6.5-8.1-6.5c-5.8,0-9.3,5.1-9.3,12c0,6.3,3.1,11.5,9.2,11.5c3.8,0,7.2-2.5,8.3-6.7c0.2-0.8,0.3-1.5,0.3-2.4
			L254.8,258.2L254.8,258.2z"/>
		<path d="M262.2,285.6c2.6-0.2,4.8-0.9,6.1-2.4c1.5-1.8,2.1-4.2,2.1-11.6v-25.9h5.6v28.1c0,6-1,9.9-3.7,12.7
			c-2.5,2.5-6.6,3.5-9.6,3.5L262.2,285.6z M276.7,236.9c0.1,1.9-1.3,3.5-3.5,3.5c-2.1,0-3.5-1.6-3.5-3.5c0-2,1.5-3.5,3.6-3.5
			C275.4,233.4,276.7,234.9,276.7,236.9z"/>
		<path d="M285.3,255.3c0-3.6-0.1-6.8-0.3-9.7h4.9l0.2,6.1h0.3c1.4-4.2,4.8-6.8,8.6-6.8c0.6,0,1.1,0.1,1.6,0.2v5.3
			c-0.6-0.1-1.2-0.2-1.9-0.2c-4,0-6.8,3-7.6,7.2c-0.1,0.8-0.3,1.7-0.3,2.6v16.5h-5.6L285.3,255.3L285.3,255.3z"/>
		<path d="M315.2,232.8c-1.5,5.4-4.2,12.2-6,15.2l-3.6,0.4c1.3-3.8,3.1-10.4,3.8-15L315.2,232.8z M324.7,232.8
			c-1.5,5.4-4.2,12.2-6,15.2l-3.6,0.4c1.4-3.8,3.1-10.4,3.8-15L324.7,232.8z"/>
	</g>
</g>
<g>
	<g>
		<path d="M851.5,218.1c-2.8,0-5.5-2.6-5.4-6.1c0.1-5.4,4.4-7.3,10.5-6.9v-1.5l1.9-0.6v10.9c0.1,2.7,1.6,4.2,4.2,4.2h1.9v1.8h-2.4
			c-4,0-5.2-2.7-5.5-4.8C856.7,215.1,855.3,218.1,851.5,218.1z M851.8,216.4c5.2,0,4.8-5.6,4.7-9.5c-2.3,0.1-8.2-0.8-8.5,5.1
			C848,213.2,848.8,216.4,851.8,216.4z M852.1,198.1h-2.2v2.4h2.2V198.1z M857,198.1h-2.2v2.4h2.2V198.1z"/>
		<path d="M864.3,219.9v-1.8h2.9c2.6,0,4.2-1.6,4.2-4.3v-8.5h1.9v7.6c0.1,2.9,1.6,5.2,4.8,5.2h1.4v1.8h-1.1c-2.7,0-4.9-1.8-5.6-3.5
			c-0.6,1.8-2,3.5-5.2,3.5H864.3z M868.6,226.1h-2.2v-2.4h2.2V226.1z M873.5,226.1h-2.2v-2.4h2.2V226.1z"/>
		<path d="M898.7,210.5c-1.3,2.3-3.5,5.2-6.4,7.3c0.7,0.2,1.5,0.4,2.4,0.4h7.2v1.8h-6.6c-1.7,0-3.3-0.5-4.7-1.2
			c-1.4,0.7-3,1.2-4.7,1.2h-6.6v-1.8h7.2c0.8,0,1.6-0.1,2.4-0.4c-3-2.1-5.2-5-6.4-7.3c1.1-6.2,5.3-7.1,8.1-7.1
			S897.6,204.2,898.7,210.5z M890.6,217c3.6-2,5.7-6.1,6-7c-1-4.7-5-5.1-6-5.1s-4.9,0.4-6,5.1C884.9,210.9,886.9,214.9,890.6,217z"
			/>
		<path d="M902.8,218.1c1.3,0,4.1-0.7,4.2-4.2c0.2-3.8,2.6-8.1,7.4-8.1c4.9,0,7.3,4.2,7.5,8c0.4,2.3,1.6,4.3,4.5,4.3h1.8v1.8h-1.5
			c-2.4,0-4.6-1.8-5.2-3c-0.9,3.2-3.3,5.7-7.1,5.7c-3.4,0-5.8-2.1-6.8-4.8c-0.6,1-2.1,2.1-4.5,2.1h-1.5v-1.8H902.8z M914.5,207.5
			c-3.8,0-5.4,3.8-5.4,6.7c0,3,1.6,6.7,5.4,6.7c3.8,0,5.4-3.7,5.4-6.7C919.9,211.3,918.3,207.5,914.5,207.5z"/>
		<path d="M927.9,219.9v-1.8h17.8v-2c0.1-4.7-2-10.1-7.9-10.1c-3,0-5.3,1.4-5.6,4.2h-1.8c0.3-4.1,3.7-6,7.5-6
			c6.9,0,9.9,5.6,9.9,11.9v3.8L927.9,219.9L927.9,219.9z M938.9,226h-2.2v-2.4h2.2V226z"/>
	</g>
	<g>
		<path d="M729,301h1.1v5.5c0,4.1-2.2,6.8-5.8,6.8c-3.5,0-5.7-2.7-5.7-6.8c0-0.9,0.2-2,0.4-2.8h1.2c-0.4,0.9-0.5,1.9-0.5,2.8
			c0,3.1,1.7,5.7,4.6,5.7c3.1,0,4.7-2.7,4.7-5.7V301z M725,304.4h-1.3V303h1.3V304.4z"/>
		<path d="M736.2,309.9c-2.9,0-3.2-2.6-3.2-3.6V297h1.1v9.5c0,1.6,0.9,2.5,2.4,2.5h1v1h-1.3V309.9z"/>
		<path d="M741.1,305c1.5-3,4.2-3.7,6.4-3.7c2.4,0,5.1,1.4,5.1,4.5c0,2.6-1.9,4.1-4.4,4.1h-10.9v-1h2.9v-12h1.1L741.1,305z
			 M748.2,308.9c1.9,0,3.3-1.4,3.3-3.1c0-2.6-2.4-3.5-3.8-3.5c-5.4,0-6.6,4.5-6.8,6.6H748.2z"/>
		<path d="M758.6,301.6h1.1v4.4c0.1,1.6,0.9,2.8,2.7,2.8h0.8v1h-0.6c-1.3,0-2.4-0.7-2.9-1.5v1.5c0,1.9-1.6,3.4-3.7,3.4
			c-0.8,0-1.8-0.4-2-0.5c0,0-0.1-0.5-0.1-1c0.8,0.5,1.7,0.5,2,0.5c1.4,0,2.5-0.9,2.7-2.4V301.6z"/>
		<path d="M763.1,309.9v-1h1.8c1.5,0,2.4-0.9,2.4-2.5v-4.8h1.1v4.4c0,1.6,0.8,3.1,2.6,3.1c1.5,0,2.4-0.9,2.4-2.5v-5h1.1v4.4
			c0,1.6,0.8,3.1,2.6,3.1c1.5,0,2.4-0.9,2.4-2.5V301h1.1v5.3c0.2,1.4,0.9,2.6,2.6,2.6h1v1h-0.9c-1.4,0-2.6-1-2.9-1.7l-0.1-0.1
			c-0.3,1-1.1,2-2.9,2c-1.4,0-2.4-0.9-3.1-2c-0.4,1.2-1.5,2-2.9,2c-1.2,0-2.2-0.5-2.8-1.6c-0.1-0.2-0.2-0.3-0.3-0.5
			c-0.3,1-1.1,1.9-2.9,1.9L763.1,309.9L763.1,309.9z"/>
		<path d="M783.9,309.9v-1h1.7c1.5,0,2.4-0.9,2.4-2.5v-9.5h1.1v9.3c0,1-0.2,3.6-3.2,3.6h-2V309.9z"/>
		<path d="M793.1,309.9H792v-13h1.1V309.9z"/>
		<path d="M798.7,309.9l0.4-1h1.3v-2.2c0-1.9,0.8-3.7,3.2-3.7c1.4,0,2.5,1,2.6,2.5h-1.1c-0.1-1-0.6-1.6-1.5-1.6c-1.5,0-2,1.2-2,2.7
			v2.2h3.1c0.4,0,1-0.2,1.1-0.6l0.8,0.6c-0.5,0.8-1.2,1-2,1h-5.9L798.7,309.9L798.7,309.9z"/>
		<path d="M810.5,309.9h-1.1v-13h1.1V309.9z"/>
		<path d="M818.7,303.9c-0.1-1.5-0.8-1.9-2.1-1.9c-1.1,0-2.2,0.3-2.3,1.6h-1.1c0.3-1.9,1.7-2.6,3.4-2.6c2,0,3.2,0.9,3.2,3v4.9h2.8v1
			H813v-1h5.7V303.9z"/>
		<path d="M822.6,309.9v-1h1.7c1.5,0,2.4-0.9,2.4-2.5V301h1.1v5.3c0,1-0.2,3.6-3.2,3.6H822.6z M826.6,313.4h-1.3V312h1.3V313.4z"/>
		<path d="M843.9,301h1.1v4.9c0,1.7,0.9,3,2.7,3h0.8v1h-0.6c-1.4,0-2.6-0.8-3-1.7c-0.5,3.1-2.6,5.2-5.7,5.2c-3.5,0-5.7-2.7-5.7-6.8
			c0-0.9,0.2-2,0.4-2.8h1.2c-0.4,0.9-0.5,1.9-0.5,2.8c0,3.1,1.7,5.7,4.6,5.7c3.1,0,4.7-2.7,4.7-5.7V301z M839.9,304.4h-1.3V303h1.3
			V304.4z"/>
		<path d="M848.3,309.9v-1h1.6c1.5,0,2.4-0.9,2.4-2.5v-4.8h1.1v4.3c0,1.7,0.9,3,2.7,3h0.8v1h-0.6c-1.5,0-2.8-1-3.2-2
			c-0.3,1-1.1,2-2.9,2H848.3z M850.8,313.4h-1.3V312h1.3V313.4z M853.5,313.4h-1.3V312h1.3V313.4z"/>
		<path d="M856.9,309.9v-1h1.7c1.5,0,2.4-0.9,2.4-2.5V301h1.1v5.3c0,1-0.2,3.6-3.2,3.6H856.9z M860.9,313.4h-1.3V312h1.3V313.4z"/>
		<path d="M868.1,309.9c-2.9,0-3.2-2.6-3.2-3.6V297h1.1v9.5c0,1.6,0.9,2.5,2.4,2.5h1v1h-1.3V309.9z"/>
		<path d="M887.3,308.9v1h-18.2v-1h3v-6.1h1.1l-0.2,2.6c1.4-3.2,4.3-4,6.5-4c2.4,0,5.1,1.4,5.1,4.5c0,1.3-0.5,2.4-1.4,3.1h4.1
			L887.3,308.9L887.3,308.9z M880.2,308.9c1.9,0,3.3-1.4,3.3-3.1c0-2.6-2.4-3.5-3.8-3.5c-5.4,0-6.6,4.5-6.8,6.6H880.2z"/>
		<path d="M887.9,308.9c0.7,0,2.3-0.4,2.4-2.4c0.1-2.2,1.5-4.6,4.2-4.6c2.8,0,4.1,2.4,4.2,4.5c0.2,1.3,0.9,2.5,2.6,2.5h1v1h-0.9
			c-1.4,0-2.6-1-2.9-1.7c-0.5,1.8-1.9,3.2-4,3.2c-1.9,0-3.3-1.2-3.9-2.7c-0.4,0.6-1.2,1.2-2.6,1.2h-0.9v-1H887.9z M894.5,302.8
			c-2.2,0-3,2.1-3,3.8c0,1.7,0.9,3.8,3,3.8c2.2,0,3.1-2.1,3.1-3.8C897.5,305,896.6,302.8,894.5,302.8z"/>
		<path d="M902.2,309.9v-1h1.7c1.5,0,2.4-0.9,2.4-2.5v-9.5h1.1v9.3c0,1-0.2,3.6-3.2,3.6h-2V309.9z"/>
		<path d="M911.3,309.9h-1.1v-13h1.1V309.9z"/>
		<path d="M927.3,302.7h1.1l-0.2,2.8c1.5-3.4,4.3-4.2,6.6-4.2c2.4,0,5.1,1.4,5.1,4.5c0,2.6-1.9,4.1-4.4,4.1h-7.7
			c-0.8,2.1-2.6,3.5-5.2,3.5c-3.6,0-5.6-2.7-5.6-6.8c0-0.9,0.1-1.9,0.5-2.8h1.1c-0.3,0.9-0.5,1.9-0.5,2.8c0,3.1,1.4,5.8,4.6,5.8
			c3.4,0,4.8-2.7,4.8-5.8v-3.9H927.3z M935.5,308.9c1.9,0,3.3-1.4,3.3-3.1c0-2.6-2.4-3.5-3.8-3.5c-5.4,0-6.6,4.5-6.8,6.6H935.5z"/>
		<path d="M946,309.9c-2.9,0-3.2-2.6-3.2-3.6V297h1.1v9.5c0,1.6,0.9,2.5,2.4,2.5h1v1H946V309.9z"/>
		<path d="M947.1,309.9v-1h10.1v-1.1c0-2.7-1.2-5.7-4.5-5.7c-1.7,0-3,0.8-3.2,2.4h-1c0.2-2.3,2.1-3.4,4.2-3.4c3.9,0,5.6,3.2,5.6,6.8
			v1.1h3v1L947.1,309.9L947.1,309.9z M953.3,298.2H952v-1.3h1.3V298.2z"/>
		<path d="M961.1,309.9v-1h1.7c1.5,0,2.4-0.9,2.4-2.5v-4.8h1.1v4.4c0,1.6,0.8,3.1,2.6,3.1c1.5,0,2.4-0.9,2.4-2.5v-5h1.1v4.4
			c0,1.6,0.8,3.1,2.6,3.1c1.5,0,2.4-0.9,2.4-2.5V301h1.1v5.5c0,1-0.2,3.7-3.2,3.7c-1.4,0-2.4-0.9-3.1-2c-0.4,1.2-1.5,2-2.9,2
			c-1.2,0-2.2-0.5-2.8-1.6c-0.1-0.2-0.2-0.3-0.3-0.5c-0.3,1-1.1,1.9-2.9,1.9h-2.2L961.1,309.9L961.1,309.9z M971.1,298.2h-1.3v-1.3
			h1.3V298.2z M972.4,296h-1.2v-1.3h1.2V296z M973.8,298.2h-1.3v-1.3h1.3V298.2z"/>
		<path d="M979.8,296.2l0.2-0.6h0.5v-0.7c0-0.8,0.4-1.6,1.3-1.6c0.7,0,1.2,0.6,1.2,1.2h-0.7c0-0.3-0.2-0.6-0.6-0.6
			c-0.5,0-0.6,0.4-0.6,0.9v0.7h1.1c0.1,0,0.3,0,0.4-0.2l0.5,0.4c-0.3,0.4-0.6,0.4-1,0.4h-2.3L979.8,296.2L979.8,296.2z M983.3,309.9
			c3,0,3.2-2.6,3.2-3.6V297h-1.1v9.5c0,1.2-0.5,1.9-1.3,2.3l-2.8-11.5h-1.1l2.9,11.6h-2l-0.5,1H983.3z"/>
		<path d="M990.5,309.9h-1.1v-13h1.1V309.9z"/>
		<path d="M1004.5,305.1c0,2.4-1.3,4.8-4.2,4.8c-2.8,0-4.2-2.4-4.2-4.8s1.4-4.8,4.2-4.8h4.2V305.1z M1003.3,301.3h-3.1
			c-2.1,0-3,2.1-3,3.8c0,1.7,0.9,3.8,3,3.8c2.2,0,3.1-2.1,3.1-3.8V301.3z M1000.6,296.3h-1.3v1.3h1.3V296.3z M1003.4,296.3h-1.3v1.3
			h1.3V296.3z"/>
		<path d="M1012.7,303.9c-0.1-1.5-0.8-1.9-2.1-1.9c-1.1,0-2.2,0.3-2.3,1.6h-1.1c0.3-1.9,1.7-2.6,3.4-2.6c2,0,3.2,0.9,3.2,3v4.9h2.8
			v1h-9.7v-1h5.7L1012.7,303.9L1012.7,303.9z"/>
		<path d="M1019.7,308.9h6.8v1h-10v-1h2.1v-3.1c0-2.4,1.4-4.8,4-4.8c1.8,0,3.4,1.1,3.4,3h-1.1c-0.1-1.4-1.1-2-2.5-2
			c-1.7,0-2.7,1.7-2.7,3.8V308.9z"/>
		<path d="M1032.5,309.9c-2.9,0-3.2-2.6-3.2-3.6V297h1.1v9.5c0,1.6,0.9,2.5,2.4,2.5h1v1h-1.3V309.9z"/>
		<path d="M1033.6,309.9v-1h1.8c1.5,0,2.4-0.9,2.4-2.5v-4.8h1.1v4.4c0,1.6,0.8,3.1,2.6,3.1c1.5,0,2.4-0.9,2.4-2.5v-5h1.1v4.4
			c0,1.6,0.8,3.1,2.6,3.1c1.5,0,2.4-0.9,2.4-2.5V301h1.1v5.3c0.2,1.4,0.9,2.6,2.6,2.6h1v1h-0.9c-1.4,0-2.6-1-2.9-1.7l-0.1-0.1
			c-0.3,1-1.1,2-2.9,2c-1.4,0-2.4-0.9-3.1-2c-0.4,1.2-1.5,2-2.9,2c-1.2,0-2.2-0.5-2.8-1.6c-0.1-0.2-0.2-0.3-0.3-0.5
			c-0.3,1-1.1,1.9-2.9,1.9L1033.6,309.9L1033.6,309.9z"/>
		<path d="M1055,308.9c0.7,0,2.3-0.4,2.4-2.4c0.1-2.2,1.5-4.6,4.2-4.6c2.8,0,4.1,2.4,4.2,4.5c0.2,1.3,0.9,2.5,2.6,2.5h1v1h-0.9
			c-1.4,0-2.6-1-2.9-1.7c-0.5,1.8-1.9,3.2-4,3.2c-1.9,0-3.3-1.2-3.9-2.7c-0.4,0.6-1.2,1.2-2.6,1.2h-0.9v-1H1055z M1061.6,302.8
			c-2.2,0-3,2.1-3,3.8c0,1.7,0.9,3.8,3,3.8c2.2,0,3.1-2.1,3.1-3.8C1064.7,305,1063.8,302.8,1061.6,302.8z"/>
		<path d="M1069.3,309.9v-1h1.7c1.5,0,2.4-0.9,2.4-2.5v-9.5h1.1v9.3c0,1-0.2,3.6-3.2,3.6h-2V309.9z"/>
	</g>
	<g>
		<path d="M790,244.6l4.6-12.9h3.2l-2.7,12.9H790z M801.6,244.6l4.6-12.9h3.3l-2.7,12.9H801.6z"/>
		<path d="M838.3,248.2h3.8v15.5c0.2,5.6,3.2,9.9,9.5,9.9h2.9v3.6h-2.2c-4.6,0-8.3-2.5-10.2-5.3v5.4c0,6.5-5.6,12-12.8,12
			c-2.9,0-6.2-1.4-6.9-1.9c0,0-0.2-1.8-0.4-3.5c2.9,1.6,5.9,1.8,6.9,1.8c4.9,0,8.8-3,9.5-8.4L838.3,248.2L838.3,248.2z"/>
		<path d="M854.1,277.2v-3.6h35.3l0.1-4c0.1-9.3-4.1-20.1-15.7-20.1c-6,0-10.4,2.7-11.2,8.3H859c0.6-8.2,7.4-11.8,14.8-11.8
			c13.7,0,19.5,11.2,19.5,23.7v4h10.4v3.6L854.1,277.2L854.1,277.2z M875.9,289.3h-4.4v-4.8h4.4V289.3z"/>
		<path d="M937.4,258.4c-0.1,7.5-4.3,12.2-9,14.9c0.8,0.2,1.4,0.3,1.7,0.3h14.4v3.6h-13.2c-1.2,0-4.1-0.4-7.5-1.6
			c-3.3,1.2-6.4,1.6-7.5,1.6H903v-3.6h14.4c0.3,0,0.9-0.1,1.8-0.3c-4.8-2.7-9.1-7.4-9.1-14.9c0-7.1,5.1-13.9,13.7-13.9
			C932.3,244.5,937.4,251.3,937.4,258.4z M923.7,271.9c4.5-2,9.8-6.2,9.9-13.4c0-4.8-3.6-10.9-9.9-10.9s-9.9,6.1-9.9,10.9
			C914,265.7,919.2,269.8,923.7,271.9z M925.7,236.4h-4.4v-4.7h4.4V236.4z"/>
		<path d="M944.2,277.2v-3.6h6c5.2,0,8.3-3.1,8.3-8.6v-33.3h3.8v32.7c0,3.6-0.8,12.7-11.1,12.7h-7V277.2z"/>
		<path d="M976.2,277.2h-3.8v-45.5h3.8V277.2z"/>
		<path d="M992.1,231.7l-4.5,12.9h-3.3l2.7-12.9H992.1z M1003.7,231.7l-4.6,12.9h-3.3l2.7-12.9H1003.7z"/>
	</g>
</g>
<g>
	<g>
		<path class="st0" d="M416.2,187.6c-1.1-0.3-2.4-0.6-3.7-1.2c-1.9-0.8-2.9-3-2.3-5c0.8-2.9,2.5-5.3,4.1-7.7
			c2.9-4.3,6.6-7.9,10.6-11.2c4.6-3.8,9.7-6.8,15-9.4c7.4-3.5,15-6.2,23-8c4.3-1,8.6-1.9,13-2.6c2.1-0.4,4.3-0.5,6.5-0.5
			c1.6,0.1,3.5,0.3,4.9,1.1c2.6,1.4,3.2,3.1,2.6,6.3c-0.2,1.2-1.1,1.9-1.9,2.7c-2.2,2.4-4.4,4.9-6.4,7.5c-3,3.9-5.4,8.3-7.3,12.9
			c-0.1,0.2-0.5,0.5-0.8,0.5c-6,1.4-11.6,3.8-16.6,7.4c-1.9,1.3-3.6,2.9-5.5,4.3c-0.3,0.3-0.8,0.5-1.2,0.5c-3-0.2-6.1-0.5-9.1-0.7
			c-2.4-0.1-4.7,0-7.1,0c0,0.1,0,0.3,0,0.4c1.3,0.1,2.7,0.2,4,0.3c3.6,0.2,7.1,1,10.4,2.3c0.6,0.2,0.8,0.5,0.7,1.2
			c-0.2,2.3-0.2,4.6-0.3,6.9c0,0.9-0.3,1.3-1.3,1.3c-2.8,0-5.6-0.1-8.3,0.3c-3.7,0.5-7.4,1.2-11,2.2c-4.4,1.1-8.6,3-12.6,5.2
			c-3.6,2-6.9,4.3-9.9,7.1c-1.4,1.3-2.8,2.6-4.3,4c-2.5-1.1-4.7-2.8-6.5-5c-1.2-1.4-1.9-3.1-1.9-5c0-2,0.9-3.8,2.1-5.3
			c2.5-3.2,5.8-5.4,9.4-7.2C408.5,191.1,412.5,189.4,416.2,187.6z"/>
		<path class="st1" d="M615.9,330c1.9-2.5,4.5-4.1,7.7-4.7c5.8-1.1,11.2,0.3,16.5,2.4c0.3,0.1,0.6,0.5,0.8,0.8
			c4.7,9,12.3,14.4,21.7,17.6c3.4,1.2,6.9,2,10.5,2.2c0.4,0,0.8,0.2,1.6,0.4c-0.6,1.8-1.1,3.7-1.9,5.4c-1.9,4.5-5,8.4-7.8,12.3
			c-0.2,0.3-0.5,0.5-0.8,0.7c-8,5.1-16,10.3-24.2,15.2c-7.4,4.4-15.2,8-23.3,11c-0.7,0.3-1.1,0.1-1.5-0.4c-3.2-4.1-6.4-8.1-9.7-12.3
			c0.6-0.5,1.2-1,1.8-1.5c5.6-4.5,10.8-9.5,13.9-16.1c2.6-5.5,3.2-11.2,0.3-16.8c-0.7-1.5-0.8-2.7-0.4-4.1c0.8-2.4-0.1-4.4-1.3-6.4
			C618.6,333.9,617.2,332,615.9,330z"/>
		<path class="st0" d="M483.1,204.8c-0.5-2.3,0.3-4.4,1.1-6.5c1.6-4,3.8-7.7,6.4-11.2c0.9-1.2,0.7-2.5,0.5-3.8
			c-0.1-0.6-0.3-1.2-0.4-1.8c-0.4-1.8,0.9-2.9,1.7-4.1c3.2-4.8,7.1-9,11.6-12.6c7-5.6,15-9.2,23.7-11.3c4.6-1.1,9.2-1.8,14-1.5
			c1.6,0.1,3.2,0.7,4.8,1.1c1.4,0.3,2.8,0.5,4.1,1c2,0.8,3.8,2,4.9,4c1.4,2.6,0.6,4.9-0.6,7.2c-0.8,1.5-2.2,0.9-3.3,1
			c-2.8,0.1-5.7,0.1-8.5,0.2c-1.2,0-2.4,0.2-3.7,0.3c-8.3,0.7-16.4,2.5-24.2,5.6c-5.3,2.1-10.4,4.9-14.9,8.4c-2.7,2.1-5,4.6-7.5,7
			c0,0,0,0.1,0,0.6c0.5-0.5,0.8-0.9,1.2-1.3c4.6-4.9,10-8.6,16.1-11.5c5.6-2.7,11.5-4.6,17.6-5.6c3.5-0.6,7-1.2,10.5-1.4
			c5.4-0.3,10.9-0.6,16.3-0.5c4.5,0.1,9,0.7,13.4,1.2c2.2,0.2,4.4,0.6,6.6,1c0.7,0.1,1.4,0.7,2,1.2c2.3,1.9,4.4,4,5.4,6.9
			c0.9,2.8,0.3,5.2-1.8,7.4c-3.1,3.2-7.1,4.7-11.1,6.1c-1.6,0.6-3.3,1-4.9,1.4c-0.4,0.1-1,0.1-1.4-0.1c-7.2-2.5-14.5-4.8-22-6.1
			c-4.5-0.8-9-1.4-13.5-1.9c-2.9-0.3-5.9-0.6-8.8-0.5c-6.3,0.2-12.5,0.9-18.4,3.4c-7.6,3.2-13.3,8.4-16.3,16.2
			C483.4,204.5,483.2,204.6,483.1,204.8z"/>
		<path class="st0" d="M473.6,204.8c-3.1,0.5-6.6,0.8-9.9,1.6c-5.6,1.4-10.2,4.5-13.9,8.9c-3.2,3.7-5.6,7.9-7.3,12.5
			c-1.7,4.4-2.8,9-3.6,13.7c-0.3,2.1-0.3,4.2-0.8,6.2c-0.6,2.5-1.6,4.9-2.4,7.3c-0.3,0.9-0.8,1.7-1.1,2.6c-0.9,2.6-2.8,4.2-4.9,5.6
			c-2.5,1.6-5,3.2-7.8,4.3c-6.1,2.5-11.3,0.5-14.9-5.3c-1.7-2.7-1.2-5.2-0.3-7.9c1.5-4.6,2.9-9.3,4.7-13.9c2-5.1,4.8-10,8.2-14.4
			c1.6-2.1,3.3-4.2,5.2-6.1c3.6-3.7,7.7-6.8,12.3-9.3c5.2-2.8,10.8-4.7,16.5-5.7c2.8-0.5,5.7-0.6,8.5-0.8c2.2-0.1,4.3-0.1,6.5,0
			C470.4,204.3,472.1,204.6,473.6,204.8z"/>
		<path class="st1" d="M570.5,283.9c-1.5-0.8-3-1.6-4.5-2.3c-4-1.9-8.1-2.9-12.5-3.3c-4.8-0.4-9.6-0.3-14.3,0.9
			c-4.7,1.2-7.3,5.3-6.5,10.5c0.3,1.6,0.7,3.2,1,4.8c0,0.2,0.1,0.5-0.1,0.7c-2.4,3.7-3.6,7.9-4.8,12.1c-0.1,0.2-0.2,0.4-0.3,0.8
			c-0.7-0.5-1.3-1.1-2-1.6c-4.2-3.3-7.6-7.2-9.8-12.1c-0.2-0.4-0.2-1-0.1-1.4c2.7-9.8,7.4-18.6,13.2-26.9c3.8-5.4,8-10.5,12.7-15.2
			c0.7-0.7,1.2-0.9,2.2-0.3c3.2,1.8,6.5,3.5,9.8,5.3c0.4,0.2,0.8,0.7,1,1.1c0.4,0.7,0.7,1.4,1,2.1c1,2.5,2.7,4.4,5.3,5.4
			c1.6,0.6,3,1.7,4.6,2.3c1.8,0.7,2.4,2.1,2.6,3.9c0.4,3.7,0.9,7.4,1.4,11.1C570.5,282.6,570.5,283.2,570.5,283.9z"/>
		<path class="st1" d="M535.5,294.2c1.2,2,2.4,3.8,3.6,5.7c0-1.7,0.1-3.2,0-4.6c-0.1-1.2,0-2.2,1-3c1.7-1.4,3.2-3.1,5-4.3
			c5-3.5,12.1-1.8,15.1,4c0.6,1.1,1.1,2.3,1.6,3.4c0.7,1.8,0.6,3.5-0.1,5.3c-1.9,4.8-4.7,9.2-7.6,13.4c-2.7,3.8-5.8,7.3-8.3,11.2
			c-3.2,5.1-5.9,10.5-8.7,15.8c-0.3,0.6-0.6,1.2-1,1.9c-1.5-0.8-2.3-2.2-2.9-3.6c-1.5-3.2-2.2-6.7-2.8-10.2c-0.7-4.6-1.1-9.2-1-13.9
			c0-1.3-0.1-2.6-0.2-3.9c-0.5-3.4,1.5-5.9,3.2-8.3c1.1-1.6,2.3-3,2.7-4.9C535.2,296.7,535.3,295.5,535.5,294.2z"/>
		<path class="st1" d="M615.6,358c-1.6-2.4-3.5-0.8-5.1-0.6c-3.5,0.4-6.9,1.1-10.4,1.5c-1,0.1-1.7,0.4-2.4,1.2
			c-3.1,4.1-7.3,6.9-11.7,9.4c-4.9,2.8-10.2,4.4-15.7,5.2c-4.3,0.6-8.6,0.9-12.9,0.3c-0.8-0.1-1.6,0-2.4,0c-0.1-0.1-0.1-0.3-0.2-0.4
			c3.2-3.3,6.4-6.6,9.6-9.8c2.2-2.2,4.5-4.3,6.9-6.3c2.1-1.8,4.3-3.6,6.5-5.3c4.4-3.6,9.1-6.6,14.1-9.2c4.1-2.1,8.4-3.8,13.1-4.4
			c5.3-0.7,7.9,0.6,10.5,6.6C616.9,349.6,616.6,354.1,615.6,358z"/>
		<path class="st0" d="M456.8,203.1c-3,0.8-6,1.6-8.9,2.5c-2.2,0.7-4.4,1.5-6.6,2.5c-4.7,2.1-9.2,4.6-13.1,7.9
			c-3.2,2.7-6.2,5.8-9.2,8.8c-4,4.2-7.1,9.1-9.6,14.3c-0.2,0.4-0.5,0.8-0.9,0.8c-3.5,0.6-7,1.2-10.4-0.6c-1.5-0.8-2.3-2-2.7-3.6
			c-1.7-5.9,0-11.1,3.6-15.6c2.3-2.9,5-5.4,7.8-7.8c3.7-3.3,7.9-5.9,12.4-7.9c5.3-2.3,10.7-4.1,16.4-5.3c3.9-0.8,7.8-1.1,11.7-0.9
			c3.3,0.2,6.5,1.1,8.9,3.6c0.2,0.2,0.3,0.3,0.5,0.5C456.7,202.8,456.7,203,456.8,203.1z"/>
		<path class="st1" d="M668.8,343.2c-2.3-0.4-4.3-0.7-6.2-1c-2.2-0.4-3.8-1.9-5.4-3.3c-3.1-2.7-5.9-5.7-7.5-9.6
			c-0.6-1.3-1-2.7-1.3-4.1c-0.3-1.1,0.3-2.1,0.9-3c2.3-3.2,5.4-5.6,8.5-7.7c2.3-1.6,5.1-1.8,7.8-1.5c3.4,0.4,6.8,1.2,10.1,1.9
			c2.5,0.6,4.2,2.3,5.6,4.3c2.4,3.2,3.6,6.8,3.9,10.8c0,0.5-0.1,1-0.4,1.4c-1.5,2.3-3.2,4.5-4.6,6.8c-1.1,1.9-2.7,3-4.7,3.5
			C673.3,342.3,670.9,342.7,668.8,343.2z"/>
		<path class="st0" d="M478.5,172.6c1.2-2.7,2.4-5.3,3.7-7.9c2-3.8,4.4-7.4,7.2-10.7c4.2-4.9,9.2-8.7,15-11.5
			c5.2-2.5,10.8-3.6,16.5-3.1c2.9,0.3,5.1,2,6.6,4.5c1.6,2.6,1.8,5.4,1.6,8.3c0,0.3-0.5,0.7-0.8,0.7c-4,0.3-7.9,1.2-11.7,2.6
			c-5.3,1.9-10.2,4.6-14.6,8.2c-2.4,1.9-4.8,3.9-7,6c-1.9,1.9-3.6,4.1-5.3,6.2c-0.2,0.2-0.7,0.5-0.9,0.4c-3.3-1.1-6.6-2.2-10-3.4
			C478.7,172.9,478.7,172.8,478.5,172.6z"/>
		<path class="st1" d="M577.4,238.5c2.3,0,4.9,0.5,7.3,1.3c6.6,2.1,12.4,5.8,17.8,10c2.5,2,4.9,4.1,7.4,6.3c0.3,0.3,0.7,0.8,0.7,1.2
			c-0.3,3.5,1.6,5.5,4.3,7.2c1.6,1,3,2.3,4.6,3.5c-2.2,1.8-4.7,2.7-7.4,3.1c-4.7,0.7-9.3,0.2-13.9-1c-0.7-0.2-1.4-0.5-1.9-1
			c-3.6-3.2-7.2-6.4-10.8-9.6c-0.2-0.2-0.3-0.6-0.3-0.9c1.6-6.1-0.1-11.3-4-16C579.9,241.2,578.6,239.8,577.4,238.5z"/>
		<path class="st1" d="M573.9,240.4c-0.5,0.3-0.9,0.6-1.4,1c1.6,1.1,3.1,2,4.4,3.1c2.4,2,4.4,4.3,5.1,7.5c1,4.8-1.8,9.5-6.6,10.8
			c-1.5,0.4-3.1,0.4-4.7,0.5c-0.3,0-0.8-0.3-0.9-0.5c-0.7-3.6-3.3-5.3-6.5-6.2c-3.4-0.9-6.8-1.6-10.3-2.1c-2.1-0.3-2.9-1.8-3.7-3.3
			c-1.2-2.5-0.9-5.1,0.1-7.6c0.2-0.5,0.8-0.9,1.3-1.2c3.2-1.9,6.7-2.9,10.5-3.4c4.2-0.5,8.3,0.1,12.3,1.1
			C573.5,240,573.6,240.1,573.9,240.4z"/>
		<path class="st1" d="M521.6,340.5c-4.8-5.1-9.2-26.3-7.4-34.1c1.7,1.5,3.7,3.2,5.8,5c1.7,1.5,3.4,3,5.2,4.4
			c0.9,0.7,1.2,1.2,0.9,2.4c-1.3,6.1-2.5,12.2-3.7,18.3C522.1,337.7,521.8,339,521.6,340.5z"/>
		<path class="st1" d="M606.6,396.6c-11,2.8-22,4.5-33.3,1.9c8.2-4.1,16.3-8.2,24.6-12.4C600.7,389.4,603.6,392.9,606.6,396.6z"/>
		<path class="st2" d="M622.9,256.5c-4-0.3-7.4-1.9-9.7-5.2c-1.1-1.5-1.8-3.3-0.8-5.1c1.1-2,3.2-2.4,5.2-2.2c3.8,0.4,7,2,9.2,5.2
			c0.6,0.8,1,1.8,1.1,2.8c0.3,2.4-1.5,4.2-4.2,4.4C623.5,256.5,623.2,256.5,622.9,256.5z M616,249.8c1.7,0,2.3-1,1.6-2.2
			c-0.8-1.3-2-1.8-3.4-1.8s-2,1.2-1.1,2.3C613.8,249.1,614.9,249.7,616,249.8z"/>
		<path class="st2" d="M692.2,295.6c-3.1-0.2-6.4-2-8.8-5.4c-1-1.5-1.5-3.1-0.5-4.8c0.9-1.6,2.4-2.1,4.1-2.1
			c4.4-0.1,7.9,1.8,10.3,5.3c0.7,1,1.1,2.4,1,3.5C698.2,294.7,696.4,295.7,692.2,295.6z M686.9,289c0.2-0.1,1-0.3,1.2-0.7
			c0.2-0.4,0.1-1.2-0.2-1.6c-0.8-1.2-1.9-1.7-3.4-1.6c-1.2,0.1-1.7,0.8-1.2,1.9C684,288.3,685.2,288.8,686.9,289z"/>
		<path class="st2" d="M616,249c-1.4,0-2.7-1-2.5-1.8c0.1-0.4,0.7-0.8,1.1-0.8c1-0.2,2.3,0.9,2.2,1.7
			C616.6,248.5,616.1,248.9,616,249z"/>
		<path class="st2" d="M686.3,288.2c-1.5-0.1-2.5-0.9-2.4-1.8c0.1-0.8,0.7-0.7,1.2-0.7c1,0,2.3,1.1,2,1.7
			C687.1,287.9,686.5,288.1,686.3,288.2z"/>
	</g>
	<g>
		<path class="st3" d="M472.5,204.8c-0.4-0.1-0.6-0.2-0.9-0.3c3.9-0.8,7.7-0.4,11.4,0c1.4-2.3,2.5-4.6,4-6.7
			c4.7-6.5,11.4-10,19.1-11.6c0.4-0.1,1.3,0.2,1.4,0.6c0.4,0.8-0.3,1.1-0.9,1.5c-2,1.1-4.2,2-6,3.4c-4.4,3.2-5.3,7.7-2.9,12.5
			c0.8,1.7,2.1,3.1,3.1,4.7c0.3,0.5,0.5,1,0.8,1.6c-0.2,0-0.3-0.1-0.5-0.1c-0.4,0.3-0.8,0.6-1.1,1c-2.2,3.8-5.1,6.9-9.6,7.7
			c-1.7,0.3-3.5,0-5.2-0.1c-0.3,0-0.6-0.3-0.8-0.6c-4.5-3.9-9.5-7-15.5-8.3c-4.8-1-9.3-0.2-13.4,2.5c-0.2,0.1-0.4,0.4-0.6,0.4
			c-0.5,0-1-0.2-1.5-0.3c0.1-0.4,0.1-1,0.4-1.3c3.8-3.1,8.1-5,12.8-5.8C468.4,205.2,470.4,205.1,472.5,204.8z"/>
		<path class="st4" d="M538.4,298.7c-1-1.5-1.9-3-2.8-4.5c-0.4,1.8-0.8,3.7-1.2,5.5c-0.1,0.6-0.4,1.2-0.8,1.6
			c-1.8,1.5-2.6,3.6-3.6,5.5c-0.1,0.2-0.3,0.4-0.7,0.6c0.1-0.9,0.1-1.9,0.4-2.8c1.1-3.2,2-6.4,4-9.2c0.1-0.2,0.1-0.6,0-0.8
			c-0.4-2-1.1-4.1-1.1-6.1c-0.1-2.3,0.3-4.8,2.2-6.5c0.7-0.6,1.8-0.9,2.7-1.2c1.8-0.4,3.7-0.5,5.4-1.1c3.6-1.2,7.3-1,10.9-0.7
			c3.2,0.2,6.3,1.2,9.1,2.7c3.2,1.8,5.6,4.2,7.2,7.6c0.3,0.7,0.2,1.1-0.3,1.7c-1.5,1.6-3,3.3-4.5,4.9c-1,1-2.6,0.8-3.4-0.4
			c-0.9-1.6-1.7-3.3-2.7-4.8c-1.5-2.2-3.4-3.7-6.1-4.3c-4.2-0.9-8.2-0.3-11.9,1.7c-1.6,0.9-2.4,2.2-2.3,4.1c0.1,1.7,0.2,3.3,0.3,5
			C539.2,297.8,539.4,298.6,538.4,298.7z"/>
		<path class="st4" d="M652.5,316.5c-0.7-1.9-1.6-3.6-1.9-5.4c-0.5-2.3,1.1-3.6,2.7-4.1c2.1-0.6,4.3-1.3,6.4-1.3
			c3.9,0,7.8,0.5,11.6,0.6c2.5,0.1,4.9-0.3,7.4-0.2c5.6,0.4,10.4,2.4,13.4,7.6c0.4,0.7,0.5,1.2,0.1,2c-1.3,2.6-2.5,5.3-3.9,8.1
			c-1-3.6-3.6-5.9-6.3-8c-0.4-0.4-1.2-0.3-1.8-0.4c-2.8-0.5-5-2.3-7.5-3.4c-1-0.4-1.9-1-2.8-1.5c-1-0.5-2.5-0.1-2.9,0.9
			c-0.6,1.3-1.8,1-2.6,0.9c-2.2-0.1-4,1-5.9,1.6c-0.9,0.3-1.6,0.5-2.4,0c-0.7-0.4-1.2-0.3-1.6,0.3
			C654.1,314.9,653.5,315.5,652.5,316.5z"/>
		<path class="st4" d="M641.4,329.6c2.4-1.5,4.7-2.8,7.1-4.3c1,4.2,2.8,7.5,5.5,10.3c1.7,1.7,3.6,3.4,5.4,5c2,1.8,4.5,2.1,7,2.3
			c4.2,0.3,8.3-0.2,12.1-2.3c-1.4,2.6-2.8,5.2-4.2,8C660.7,347.2,649.2,342,641.4,329.6z"/>
		<path class="st4" d="M612.2,357.2c1.3-0.9,2.4-0.5,3.4,0.8c0.2-1,0.5-1.7,0.6-2.4c0.5-4.3,0.4-8.4-2.1-12.2
			c-0.2-0.3-0.1-0.9,0.1-1.2c0.4-0.7,0.3-1.2-0.1-1.8c-1.4-2.2-2.7-4.4-3.3-7c-0.2-1-0.1-2,0.6-2.5c0.8-0.5,1.9-0.3,2.9-0.4
			c0.1,0,0.3,0.4,0.5,0.6c0.5,1,1,2,1.5,3c0.2,0.4,0.4,0.9,0.7,1c2.2,1.2,2.4,3.4,2.8,5.5c0.9,4.3,1.4,8.8,3.2,12.9
			c0.4,0.9,0.3,1.8-0.5,2.6c-1.6,1.7-2.6,3.7-2.7,6.1c0,0.7-0.2,0.9-1,0.7c-1.5-0.5-3-0.8-4.5-1.3c-0.3-0.1-0.6-0.4-0.7-0.6
			C613.1,359.7,612.6,358.5,612.2,357.2z"/>
		<path class="st4" d="M568.7,270.4c0.6-2.5-1.2-2.7-2.5-3.4c-2.3-1.2-4.7-2.4-6.9-3.8c-1-0.6-1.6-1.9-2.2-2.9
			c-1-1.7-1.8-3.6-2.8-5.6c2.6,0.5,5,0.9,7.4,1.5c1.8,0.5,3.5,1.2,5.1,2c1.7,0.9,2.6,2.5,3,4.3c0,0.2,0.1,0.6,0.2,0.6
			c1.2,0.2,0.9,1.1,1,1.8c0,0.5,0,1,0,1.4C571,268,570.3,269.2,568.7,270.4z"/>
		<path class="st4" d="M579.7,260.8c0.8-1.7,1.8-3,2.2-4.5c1-3.5,0-6.8-2.5-9.4c-2-2-4.3-3.7-6.5-5.6c0.2-0.2,0.6-0.7,1.1-1.2
			c-1.5-0.3-2.8-0.7-4.2-1c1.4-1.5,4.6-1.7,8.7-0.7c-0.6,0.1-1,0.1-1.4,0.1c0.1-0.1,0.2-0.2,0.3-0.3c1.2,1.4,2.3,2.8,3.5,4.1
			c2.5,2.8,4.1,6,4.7,9.7c0.3,2.1,0.1,4.2-0.3,6.2c-0.1,0.5-0.6,1.2-1.1,1.3C582.7,260.1,581.2,260.4,579.7,260.8z"/>
	</g>
	<g>
		<path class="st5" d="M529.1,318.8c-1-0.8-2-1.6-3-2.5c-2.9-2.5-5.9-4.9-8.7-7.6c-7.6-7.5-12.5-16.6-16.1-26.6
			c-2.9-8.1-5-16.4-6.5-24.9c-0.8-4.4-1.3-8.9-1.7-13.3c-0.4-3.7-0.5-7.5-0.7-11.2c0-0.7-0.4-0.9-0.9-1.1c-3.1-1.1-6.2-2.3-8.8-4.4
			c-1.7-1.3-3-2.8-2.8-5.2c0.1-1.5,0.8-2.7,1.9-3.6c0.3-0.2,1-0.2,1.4,0c4.2,1.3,8.1,1.1,11.8-1.5c2.4-1.7,4.1-4.1,5.4-6.9
			c3.1,2.3,6,4.6,6.8,8.6c0.5,2.5,0,4.8-1.3,6.8c-1,1.5-2.3,2.8-3.4,4.3c-0.3,0.4-0.7,0.9-0.6,1.3c0.3,3.4,0.5,6.8,0.9,10.2
			c0.6,4.6,1.1,9.1,1.9,13.7c0.9,5.3,2,10.6,3.2,15.8c1.9,7.8,4.8,15.3,8.1,22.7c2.2,4.8,5.1,8.8,9,12.3c1.2,1,2.4,1.9,3.6,2.9
			c0.2,0.2,0.5,0.5,0.5,0.7C529.1,312.3,529.1,315.5,529.1,318.8z"/>
		<path class="st5" d="M652.8,439.9c-2.2,1.9-4.4,3.8-6.7,5.8c-1.1-1.9-2.1-3.7-3.2-5.5c-2.3-3.7-4.5-7.4-7-10.9
			c-1.1-1.6-2.7-3-4.2-4.4c-5.4-4.9-10.3-10.3-14.8-16c-3.9-4.8-7.8-9.5-11.8-14.3c-4.4-5.3-8.8-10.6-13.2-15.8
			c-2.4-2.8-4.9-5.5-7.4-8.3c1.9-1.2,3.8-2.3,5.6-3.4c0.1,0,0.2-0.1,0.2-0.1c0.7-0.5,1.6-1.6,2.2-1.4c0.8,0.2,1.6,1.1,2.2,1.9
			c3.9,4.7,7.7,9.5,11.5,14.3c2.1,2.6,4.2,5.2,6.3,7.9c4.5,5.7,8.9,11.6,13.6,17.2c3.4,4.1,7,7.9,10.8,11.7
			C645.6,427.3,646.7,429.6,652.8,439.9z"/>
		<path class="st6" d="M476.5,175.7c3.4-0.1,6.7,0.3,9.7,2c2.9,1.6,4.8,4,5,7.4c0,0.3,0,0.8-0.2,1.1c-3.2,5.3-6.4,10.5-9.6,15.8
			c-0.4,0.7-0.7,0.9-1.6,0.7c-2.7-0.4-5.4-0.7-8-0.8c-4.3-0.2-8.6-0.2-12.9-0.3c-0.2,0-0.5,0-0.7-0.1c-2.8-1.6-5.5-3.4-6.4-6.7
			c-0.6-2.4-0.2-4.9,1.3-7c2.5-3.8,6.1-6.4,9.8-9c2.8-1.9,5.8-2.7,9.1-2.9C473.5,176,475,175.9,476.5,175.7z"/>
		<path class="st5" d="M542.9,329.5c1.5-2.3,2.9-4.4,4.6-6.9c10.7,9.9,21.1,19.6,31.7,29.4c-2.4,1.9-4.6,3.7-6.9,5.6
			C562.8,348,553.6,338,542.9,329.5z"/>
	</g>
	<g>
		<path class="st7" d="M435.8,179.5c-1.1-1-1.1-2.5,0-3.6c1-1,0.9-1.3-0.3-1.8c-0.5-0.2-1-0.5-1.5-1c1.6-0.3,3.2-0.6,4.9-0.8
			c-0.7-0.6-1.2-0.9-1.7-1.3c0.6-0.4,1.2-0.9,1.8-1.3c0.6-0.3,1.2-0.4,1.8-0.6c0.4-0.2,0.9-0.6,0.9-0.8c0-0.4-0.4-0.8-0.8-1.1
			c-0.6-0.4-1.3-0.8-1.9-1.1c0-0.1,0.1-0.3,0.1-0.4c0.9,0.1,1.8,0.1,2.7,0.2c2.6,0.4,6.7-1.4,8-3.6c0.4-0.7,0.5-1.7,0.8-2.8
			c2.1-0.1,4.3-0.3,6.6-0.4c1.1,0,2.2,0,3.2,0.1s1.5-0.3,1.7-1.2c0.3-1.4,0.8-1.5,2.1-0.8c0.5,0.3,1.3,0.4,1.9,0.4
			c1.7-0.2,3.4-0.6,5.1-0.9c0.7-0.1,1.5,0,2.5,0c-0.3,0.7-0.5,1.2-0.7,1.8c0.5-0.1,0.9-0.2,1.2-0.3c0.8-0.2,1.5-0.5,2.3-0.7
			s1.6-0.2,2.4,0.6c0.6,0.6,1.8,0.8,2.8,1.2c-0.2,0.3-0.4,0.6-0.6,0.7c-2.2,1.5-3.6,3.7-4.7,6.1c-0.6,1.4-1.4,2.7-2.1,4
			c-1.1,1.9-2.8,2.7-4.9,2.7c-0.8,0-1.6,0-2.4,0c-2.4,0-4.3,0.9-6.1,2.5c-2.7,2.4-5.7,4.4-8.6,6.6c-0.3,0.3-0.8,0.5-1,0.8
			c-0.6,1.4-1.7,1.4-2.9,1.2c-3.5-0.6-6.9-1.1-10.5-0.6c-0.2,0-0.4,0-0.6,0c-2,0.3-2.5-0.1-2.6-2c0-0.2,0.2-0.5,0.3-0.7
			C435.2,180.2,435.5,179.9,435.8,179.5z"/>
		<path class="st8" d="M672.5,354.2c0,0.1,0,0.2,0,0.2c-2.5,4-5,8-7.5,11.9c-0.2,0.4-0.6,0.7-1,0.9c-14.2,9.3-29,17.4-44.7,24
			c-1.1,0.5-2.2,0.9-3.2,1.3c-0.3,0.1-0.7,0.4-1.1,0.6l-3.6-4.7c0.2,0.2,0.9,0.1,1.3-0.1c6.2-2.5,12.5-5,18.6-7.8
			c11.9-5.4,23.2-12,33.5-20C667.3,358.6,669.9,356.4,672.5,354.2z"/>
		<path class="st9" d="M650.9,440.6c-0.3,0.2-0.5,0.5-0.8,0.8c-1.9-3.1-3.8-6.2-5.6-9.2c-2.9-4.7-6.9-8.4-10.8-12.3
			c-3.6-3.6-7-7.5-10.3-11.5c-3.4-4.1-6.5-8.6-9.9-12.8c-1.8-2.2-3.8-4.2-5.6-6.3c-1.6-1.9-3-3.9-4.6-5.8c-1.7-2.1-3.4-4.3-5.2-6.3
			c-2.8-3.2-5.8-6.4-8.8-9.6c0.7-0.5,1.4-1,2.2-1.5c2.8,3,5.5,6.1,8.3,9.1c1.8,2,3.7,3.9,5.5,5.9c1.2,1.3,2.2,2.7,3.3,4.1
			c0.9,1.1,1.7,2.3,2.7,3.3l3.6,4.7c1,1.4,2,2.6,2.9,3.9c3.3,4.3,6.5,8.6,9.9,12.8c2.4,2.9,4.8,5.8,7.6,8.2c5.3,4.6,9.7,9.9,13.2,16
			c0.9,1.5,1.8,3.1,2.7,4.6C651.8,439.5,651.9,440.1,650.9,440.6z"/>
		<path class="st9" d="M529.2,314.8c-0.1,0-0.2,0.1-0.3,0.2c-1.9-1.7-3.8-3.4-5.6-5.2c-4.7-4.9-8.5-10.4-11.3-16.6
			c-4.2-9.4-6.9-19.4-9.1-29.5c-1-4.6-1.7-9.3-2.4-13.9c-0.5-3.6-0.7-7.3-1-11c-0.1-1.4-0.2-2.8-0.4-4.3c0.8-0.3,1.5-0.5,2.3-0.8
			c0.4,4.3,0.7,8.6,1.2,12.8c1,8.8,2.2,17.5,4.6,26s5.8,16.6,10.4,24.2c1,1.6,2.2,3.1,3.3,4.7c0.1,0.1,0.1,0.4,0.4,0.7l0.3,0.6
			c1.3,1.6,2.6,3.3,4,4.9c1,1.1,2.1,2,3.1,3.1c0.2,0.2,0.4,0.5,0.4,0.8C529.2,312.6,529.2,313.7,529.2,314.8z"/>
		<path class="st7" d="M422.9,206.2c-0.9-1.3-0.8-1.5,0.6-1.9c2.4-0.7,4.9-1.2,7.1-2.4c4.9-2.5,9.9-2.7,15.1-1.6
			c0.9,0.2,2,0.1,2.9,0c1-0.1,1.9-0.3,2.3,1c0.1,0.3,0.5,0.5,0.7,0.8c1,1.1,0.9,1.7-0.5,2.1c-5.2,1.4-10.3,3.5-15,6.2
			c-2.9,1.7-5.7,3.6-8.6,5.4c-1.6,1-3.3,2-5,2.9c-0.2,0.1-0.8,0.2-0.9,0c-0.5-0.8-1.1-0.3-1.6-0.1s-1,0.2-1.5,0.3
			c0-0.5-0.1-0.9-0.1-1.4c0-0.1,0-0.3,0-0.5c-2.4,0-4.4,1.9-7.3,1.4c0.8-0.8,1.3-1.5,1.9-2c0.9-0.6,1.9-1,2.8-1.6
			c1.3-0.8,2.4-1.7,2.3-3.4c0-0.2,0.1-0.5,0.3-0.6C420,209.2,421.4,207.7,422.9,206.2z"/>
		<path class="st7" d="M462.3,205.4c-1,0.5-1.9,1-3,1.4c-5.1,1.7-9.2,4.7-12.1,9.3c-1.4,2.3-2.9,4.5-4.3,6.8c-0.6,0.9-1.3,1.7-2.5,1
			c-0.1-0.1-0.4,0-0.6,0.1c-2.5,1-4.9,2.1-7.4,3.2c-2.2,1-4.3,2.2-5.7,4.2c-0.3,0.4-0.9,0.6-1.3,0.9c-0.1-0.1-0.2-0.1-0.4-0.2
			c0.1-0.4,0.1-1,0.3-1.3c0.4-0.6,1-1.1,1.4-1.6c0.8-1,1.4-2.1,2.3-3.3c-2.2-0.2-2.7-1.3-1.8-3.1c0.3-0.6,0.4-1.4,0.7-2
			c0.2-0.4,0.6-0.7,0.9-0.8c1.2-0.3,2.1-0.6,2.5-2c0.3-0.9,1.6-1.5,2.4-2.3c0.4-0.3,0.8-0.5,1.2-0.8c1.1-0.8,2.2-1.7,3.5-2.3
			c3.7-1.8,7.5-3.5,11.2-5.3c2.5-1.2,5.1-2,8-1.8c1.5,0.1,3.1-0.2,4.6-0.3C462.2,205.1,462.2,205.3,462.3,205.4z"/>
		<path class="st7" d="M499.7,154.5c-0.2,0.9-0.3,1.4-0.5,2.1c0.7-0.1,1.2-0.2,1.8-0.3c0.9-0.2,1.7-0.6,2.6,0
			c0.2,0.1,0.6-0.1,0.9-0.2c1.1-0.3,2.1-0.6,3.2-0.9c0.1,0.1,0.2,0.2,0.2,0.3c-0.8,1.2-1.6,2.4-2.5,3.6c0.3,0.1,0.6,0.2,1.1,0.4
			c-1.1,0.8-2,1.5-2.9,2.2c-2.6,2-5.3,3.8-7.7,5.9c-2.2,2-4.2,4.3-6.3,6.4c-0.3,0.3-0.8,0.5-1.2,0.5c-1.2-0.1-2.3-0.3-3.5-0.6
			c-0.5-0.1-1.1-0.2-1.6-0.4c-1.3-0.5-1.4-0.9-1-2.2c0.1-0.4,0.3-0.8,0.2-1.1c-0.3-1.6,0.2-3,1.1-4.3c1.4-2.2,2.9-4.5,4.4-6.7
			c0.2-0.3,0.5-0.5,0.8-0.7c0.6-0.4,1.3-0.7,1.9-1c1-0.6,1.8-1.4,3.3-1c0.9,0.2,2-0.6,3-1C497.9,155.2,498.6,154.9,499.7,154.5z"/>
		<path class="st7" d="M411.7,198.9c1.9-0.7,3.8-1.3,5.6-2.2c1.8-0.9,3.5-2,5.3-3.1c-0.2-0.2-0.4-0.5-0.6-0.7c0.1,0,0.2,0.1,0.3,0.1
			c0.4-0.6,0.9-1.2,1.3-1.8c0.2-0.2,0.4-0.5,0.7-0.6c1.6-0.5,3.2-1,5-1.5c-0.4-0.5-0.5-0.8-0.8-1.2c2.4-1.1,4.7-1.7,7.2-1.3
			c2.4,0.4,4.7,0.9,7,1.3c0.4,0.1,0.8,0,1.2,0.1c1.2,0.2,2.5,0.3,3.7,0.8c1.5,0.6,1.7,1.3,1,2.8c-0.2,0.5-0.4,1.1-0.3,1.6
			c0.1,1.1-0.5,1.7-1.4,1.7c-4.6-0.3-8.8,1.6-13.2,2.3c-1.9,0.3-3.6,1-5.5,1.5c-0.4,0.1-1.1,0.3-1.4,0.1c-2.1-1.3-4.3-0.7-6.4-0.5
			c-2.7,0.2-5.4,0.6-8.1,1c-0.2,0-0.5,0-0.7,0C411.8,199.2,411.8,199.1,411.7,198.9z"/>
		<path class="st7" d="M515.9,161.5c-0.2,0.1-0.4,0.3-0.5,0.4c-0.3,0.3-0.5,0.7-0.7,1c0.4,0.2,0.9,0.6,1.3,0.6
			c0.6,0,1.2-0.3,1.9-0.3c0.7-0.1,1.5-0.4,1.9,0.6c0.1,0.2,0.6,0.2,0.9,0.2c1.1-0.1,2.2-0.3,3.3-0.4c0.4,0,0.8,0.2,1.2,0.3
			c-0.2,0.3-0.4,0.6-0.6,0.9c-0.6,0.6-1.2,1.1-1.8,1.7c0.4,0.2,0.7,0.4,1.2,0.7c-1.3,1.9-3.4,0.8-5,1.6c0.1,0.3,0.3,0.5,0.4,0.8
			c-0.1,0.1-0.2,0.1-0.3,0.2c-1.3,0.6-2.6,1.2-3.9,1.7c-1.2,0.5-2.5,1.1-3.8,1.4c-3.6,1.1-6.8,2.6-9.4,5.3c-1.5,1.6-3.2,3-5.3,3.5
			c-0.5,0.1-1.1,0.2-1.7,0.3c0.3-1,0.4-1.9-0.5-2.6c-0.2-0.1,0-0.9,0.2-1.3c0.8-1.2,1.6-2.4,2.4-3.6c0.1-0.2,0.2-0.4,0.2-0.5
			c-0.6-1.2,0.4-1.5,1-2c4.8-3.9,9.8-7.4,15.4-10.1c0.7-0.3,1.4-0.5,2.2-0.7C515.8,161.2,515.9,161.4,515.9,161.5z"/>
		<path class="st7" d="M481.4,213.4c2.5-3.5,2.5-4.3-0.1-7c0.7,0.1,1.2,0,1.7,0.2c1.3,0.4,1.8-0.2,2.2-1.3c1-2.9,2.6-5.4,4.6-7.7
			c0.2-0.3,0.5-0.4,1-0.9c-1.3,5.6,2.1,8.5,5.8,11c3.5,2.4,3,2.6,0.7,5.4c-2.6,3.4-6.1,4.9-10.4,4.2c-0.3-0.1-0.7-0.1-1-0.4
			C484.4,215.9,482.9,214.7,481.4,213.4z"/>
		<path class="st8" d="M553.6,293.4c2.9,0.9,3.9,2.4,3.4,5.2c-0.9,4.9-3,9.3-5.3,13.6c-3.6,7-8,13.6-12.6,20
			c-0.1,0.1-0.2,0.2-0.3,0.2C544.7,319.8,549,306.6,553.6,293.4z"/>
		<path class="st9" d="M546.5,324.2c11.1,8.9,22.1,17.8,31.9,28.4c-0.8,0.6-1.6,1.3-2.4,1.9c-10.3-9.4-20-19.4-31.1-27.9
			c0.2-0.4,0.5-0.9,0.7-1.3C545.9,324.9,546.2,324.6,546.5,324.2z"/>
		<path class="st8" d="M521,337.9c-3.6-9-4-18.1-2.1-27.6c1.2,1.1,2.2,2,3.2,2.9c0.2,0.2,0.3,0.4,0.5,0.5c1.7,0.8,1.8,2,1.4,3.7
			c-1.7,6.6-2.8,13.3-3,20.1C521.1,337.7,521.1,337.8,521,337.9z"/>
		<path class="st8" d="M606.1,396c-6.6,2-13.1,3.4-19.9,3.6c-0.8,0-1.8,0.2-2.5-0.1c-0.7-0.3-1.1-1-1.7-1.7c7.1-2,14-3.9,20.9-5.8
			C603.9,393.3,604.9,394.6,606.1,396z"/>
		<path class="st7" d="M467.4,199.5c6.7-4.7,13.2-9.3,19.5-13.7c-0.1,1.9-4,7.3-7.3,9.9C476.1,198.4,472.1,199.7,467.4,199.5z"/>
		<path class="st8" d="M664.1,338.4c6.1-0.1,12.1-0.6,17.8-2.9C678,343.3,666.9,343.2,664.1,338.4z"/>
		<path class="st8" d="M589.7,364.4c-6,6.1-13.6,7.9-21.9,7.7C575.2,369.8,582.8,368,589.7,364.4z"/>
		<path class="st8" d="M609.9,352.9c0.8,1.4,1.5,2.7,2.2,4.1c-3.6,0.6-7,1.1-10.4,1.7c0-0.1-0.1-0.1-0.1-0.2
			C604.4,356.7,607.1,354.8,609.9,352.9z"/>
		<path class="st8" d="M610.6,267.6c-4.3,1.6-7.7-0.5-11.3-2.1c-1.3-0.6-2.8-0.9-3-2.8C601.1,264.4,605.8,266,610.6,267.6z"/>
		<path class="st7" d="M459.8,198.3c1.8,0,3.4,0,5.1,0c0.4,0.8,0,1.1-0.7,1.3C461.9,200.2,460.5,199.9,459.8,198.3z"/>
		<path class="st8" d="M532.2,293.5c-1.8,4.4-3.6,8.8-5.5,13.5c-1.6-1.5-3.2-2.9-4.9-4.4c-0.1,0.1-0.2,0.1-0.2,0.2l-0.3-0.6
			c0.2-0.3,0.4-0.7,0.6-1.1c0.6-1.3,1.1-2.8,1.9-4c1.8-2.4,2.1-5.2,2.1-8c0-0.2,0-0.4,0.1-0.6c0,0,0,0,0.2-0.1
			c1.9,1.4,3.9,2.9,5.8,4.3C532.2,292.8,532.3,293.3,532.2,293.5z"/>
	</g>
</g>
<g>
	<path d="M115.8,326.5c1.2-0.3,3.1-0.4,5.1-0.4c2.8,0,4.6,0.5,5.9,1.6c1.1,0.8,1.8,2.1,1.8,3.8c0,2.1-1.4,3.9-3.6,4.7v0.1
		c2,0.5,4.4,2.2,4.4,5.4c0,1.9-0.7,3.3-1.8,4.3c-1.5,1.4-3.9,2-7.5,2c-1.9,0-3.4-0.1-4.3-0.3V326.5z M118.6,335.4h2.5
		c2.9,0,4.7-1.5,4.7-3.6c0-2.5-1.9-3.5-4.7-3.5c-1.3,0-2,0.1-2.5,0.2V335.4z M118.6,345.7c0.5,0.1,1.3,0.1,2.3,0.1
		c2.9,0,5.5-1.1,5.5-4.2c0-2.9-2.5-4.2-5.6-4.2h-2.3V345.7z"/>
	<path d="M146,343.6c0,1.6,0,3,0.1,4.2h-2.5l-0.2-2.5h-0.1c-0.7,1.2-2.4,2.9-5.1,2.9c-2.4,0-5.3-1.3-5.3-6.8v-9.1h2.8v8.6
		c0,2.9,0.9,4.9,3.5,4.9c1.9,0,3.2-1.3,3.7-2.6c0.2-0.4,0.3-0.9,0.3-1.4v-9.5h2.8V343.6z"/>
	<path d="M150.7,337.1c0-1.8,0-3.4-0.1-4.8h2.5l0.1,3h0.1c0.7-2.1,2.4-3.4,4.3-3.4c0.3,0,0.5,0,0.8,0.1v2.7c-0.3-0.1-0.6-0.1-1-0.1
		c-2,0-3.4,1.5-3.8,3.6c-0.1,0.4-0.1,0.8-0.1,1.3v8.3h-2.8V337.1z"/>
	<path d="M162.4,340.6c0.1,3.8,2.5,5.4,5.3,5.4c2,0,3.2-0.4,4.3-0.8l0.5,2c-1,0.4-2.7,1-5.2,1c-4.8,0-7.6-3.1-7.6-7.8
		c0-4.7,2.8-8.4,7.3-8.4c5.1,0,6.4,4.4,6.4,7.3c0,0.6-0.1,1-0.1,1.3H162.4z M170.7,338.6c0-1.8-0.7-4.6-3.9-4.6
		c-2.8,0-4.1,2.6-4.3,4.6H170.7z"/>
	<path d="M185.5,347.8l-0.2-2h-0.1c-0.9,1.2-2.5,2.3-4.7,2.3c-3.1,0-4.7-2.2-4.7-4.4c0-3.7,3.3-5.8,9.3-5.8v-0.3
		c0-1.3-0.4-3.6-3.5-3.6c-1.4,0-2.9,0.4-4,1.2l-0.6-1.9c1.3-0.8,3.1-1.4,5.1-1.4c4.7,0,5.9,3.2,5.9,6.3v5.8c0,1.3,0.1,2.7,0.3,3.7
		H185.5z M185,339.9c-3.1-0.1-6.6,0.5-6.6,3.5c0,1.8,1.2,2.7,2.7,2.7c2,0,3.3-1.3,3.7-2.6c0.1-0.3,0.2-0.6,0.2-0.9V339.9z"/>
	<path d="M205.3,343.6c0,1.6,0,3,0.1,4.2h-2.5l-0.2-2.5h-0.1c-0.7,1.2-2.4,2.9-5.1,2.9c-2.4,0-5.3-1.3-5.3-6.8v-9.1h2.8v8.6
		c0,2.9,0.9,4.9,3.5,4.9c1.9,0,3.2-1.3,3.7-2.6c0.2-0.4,0.3-0.9,0.3-1.4v-9.5h2.8V343.6z"/>
	<path d="M216.8,326.5c1.7-0.3,3.7-0.4,5.9-0.4c4,0,6.8,0.9,8.7,2.7c1.9,1.8,3,4.3,3,7.7c0,3.5-1.1,6.4-3.1,8.4
		c-2,2-5.3,3.1-9.5,3.1c-2,0-3.6-0.1-5.1-0.3V326.5z M219.6,345.6c0.7,0.1,1.7,0.2,2.8,0.2c6,0,9.2-3.3,9.2-9.2
		c0-5.1-2.8-8.3-8.7-8.3c-1.4,0-2.5,0.1-3.3,0.3V345.6z"/>
	<path d="M239.7,340.6c0.1,3.8,2.5,5.4,5.3,5.4c2,0,3.2-0.4,4.3-0.8l0.5,2c-1,0.4-2.7,1-5.2,1c-4.8,0-7.6-3.1-7.6-7.8
		c0-4.7,2.8-8.4,7.3-8.4c5.1,0,6.4,4.4,6.4,7.3c0,0.6-0.1,1-0.1,1.3H239.7z M248,338.6c0-1.8-0.7-4.6-3.9-4.6
		c-2.8,0-4.1,2.6-4.3,4.6H248z"/>
	<path d="M254.2,325.1h2.8v22.7h-2.8V325.1z"/>
	<path d="M261.7,325.1h2.8v22.7h-2.8V325.1z"/>
	<path d="M270.3,332.3l3.4,9.2c0.4,1,0.7,2.2,1,3.2h0.1c0.3-0.9,0.6-2.1,1-3.2l3.1-9.1h3l-4.2,11c-2,5.3-3.4,8-5.3,9.7
		c-1.4,1.2-2.8,1.7-3.5,1.8l-0.7-2.4c0.7-0.2,1.6-0.7,2.5-1.4c0.8-0.6,1.7-1.7,2.4-3.1c0.1-0.3,0.2-0.5,0.2-0.7s-0.1-0.4-0.2-0.7
		l-5.7-14.3H270.3z"/>
	<path d="M283.8,344.9c0.8,0.5,2.3,1.1,3.7,1.1c2,0,3-1,3-2.3c0-1.3-0.8-2.1-2.9-2.8c-2.8-1-4.1-2.5-4.1-4.4c0-2.5,2-4.5,5.3-4.5
		c1.6,0,2.9,0.4,3.8,1l-0.7,2c-0.6-0.4-1.7-0.9-3.2-0.9c-1.7,0-2.6,1-2.6,2.1c0,1.3,0.9,1.9,2.9,2.6c2.7,1,4.1,2.4,4.1,4.7
		c0,2.7-2.1,4.6-5.8,4.6c-1.7,0-3.3-0.4-4.4-1.1L283.8,344.9z"/>
</g>
<g>
	<path d="M838.5,345c0-0.3,0-0.7-0.1-1.1s-0.1-0.9-0.2-1.4s-0.2-1-0.4-1.5s-0.3-0.9-0.5-1.3l2.8-0.8c0.1,0.3,0.2,0.7,0.4,1.1
		s0.2,0.9,0.3,1.3s0.2,0.9,0.3,1.4s0.1,0.9,0.2,1.4c0.5,0.3,1.1,0.5,1.8,0.6s1.3,0.2,2,0.2h1.1c0.3,0,0.6-0.1,0.8-0.4
		s0.3-0.7,0.3-1.3v-5.8h2.8v6.5c0.5,0.4,1.1,0.7,1.8,0.8c0.7,0.2,1.5,0.3,2.3,0.3h1.1c0.3,0,0.6-0.1,0.8-0.4s0.3-0.7,0.3-1.3v-7.5
		h2.8v8.1c0.5,0.4,1.1,0.7,1.8,0.9s1.5,0.3,2.5,0.3h0.1c0.4,0,0.7,0.1,0.8,0.2s0.3,0.3,0.3,0.6v1.1c0,0.2,0,0.4-0.1,0.5
		s-0.1,0.2-0.2,0.3s-0.2,0.1-0.4,0.1s-0.3,0-0.4,0h-0.2c-0.6,0-1.1,0-1.6-0.1s-0.9-0.2-1.3-0.3s-0.7-0.3-1-0.5
		c-0.3-0.2-0.6-0.4-0.8-0.7c-0.3,0.5-0.6,0.8-1.1,1.2s-1,0.5-1.7,0.5h-1.7c-0.8,0-1.6-0.1-2.5-0.3s-1.5-0.6-2.2-1.2
		c-0.3,0.4-0.6,0.8-1.1,1.1s-1,0.4-1.7,0.4H845c-0.7,0-1.3-0.1-2-0.2c-0.7-0.1-1.3-0.4-1.8-0.7c-0.2,1.1-0.5,2.2-1,3.1
		s-1.1,1.7-1.9,2.4s-1.7,1.2-2.8,1.6c-1.1,0.4-2.3,0.6-3.7,0.6c-1.5,0-2.8-0.2-3.9-0.7s-2-1.1-2.7-1.8c-0.7-0.8-1.3-1.6-1.6-2.6
		c-0.4-1-0.5-2-0.5-3.1c0-0.5,0-1.1,0.1-1.6s0.2-1.1,0.4-1.6s0.3-1,0.5-1.5s0.4-0.9,0.7-1.3l2.4,1.3c-0.2,0.3-0.3,0.6-0.5,0.9
		s-0.3,0.7-0.3,1.1s-0.2,0.8-0.2,1.1s-0.1,0.8-0.1,1.1c0,0.8,0.1,1.6,0.4,2.3c0.3,0.7,0.6,1.3,1.1,1.9c0.5,0.5,1.1,0.9,1.9,1.3
		c0.7,0.3,1.6,0.5,2.6,0.5c1,0,1.9-0.2,2.7-0.5c0.8-0.3,1.5-0.8,2-1.3c0.6-0.6,1-1.3,1.3-2.1C838.4,347,838.5,346.1,838.5,345z"/>
	<path d="M863.5,347.8c-0.4,0-0.7-0.1-0.8-0.2s-0.3-0.3-0.3-0.6v-1.1c0-0.2,0-0.4,0.1-0.5c0.1-0.1,0.1-0.2,0.2-0.3
		c0.1-0.1,0.2-0.1,0.4-0.1c0.1,0,0.3,0,0.4,0h4.3v-19.6h2.8v22.5H863.5z"/>
	<path d="M874.1,347.8V345h5.3c0.7,0,1.3,0,1.8-0.1s0.8-0.2,1.1-0.4s0.5-0.4,0.6-0.6s0.2-0.5,0.2-0.8c0-0.6-0.1-1.1-0.4-1.7
		s-0.7-1.2-1.2-1.8s-1-1.2-1.6-1.8s-1.2-1.1-1.8-1.6l2.1-2c0.7,0.6,1.4,1.2,2,1.9s1.3,1.4,1.8,2.2s1,1.5,1.3,2.3s0.5,1.6,0.5,2.3
		c0,0.7-0.1,1.4-0.3,2s-0.6,1.1-1,1.6s-1.1,0.8-1.8,1s-1.6,0.4-2.7,0.4H874.1z"/>
	<path d="M905.1,347.8c-1.3,0-2.3-0.1-3.2-0.2c-0.9-0.1-1.7-0.3-2.3-0.6c-0.6-0.3-1.1-0.5-1.5-0.9c-0.4-0.3-0.7-0.7-0.9-1.1
		c-0.2-0.4-0.3-0.9-0.4-1.3c-0.1-0.5-0.1-1-0.1-1.5c0-0.2,0-0.4,0-0.7s0-0.5,0.1-0.8s0.1-0.6,0.1-0.8s0.1-0.5,0.1-0.8l2.7,0.3
		c-0.1,0.4-0.1,0.7-0.2,1.1s-0.1,0.7-0.1,1.1c0,0.6,0.1,1.2,0.2,1.6s0.5,0.8,1,1.1s1.3,0.5,2.3,0.6s2.3,0.2,4,0.2h10.5
		c0.3,0,0.6-0.1,0.8-0.4s0.3-0.7,0.3-1.3v-7.5h2.8v8.3c0.5,0.3,1,0.6,1.7,0.7s1.4,0.2,2.3,0.2h0.1c0.4,0,0.7,0.1,0.8,0.2
		s0.3,0.3,0.3,0.6v1.1c0,0.2,0,0.4-0.1,0.5s-0.1,0.2-0.2,0.3s-0.2,0.1-0.4,0.1s-0.3,0-0.4,0h-0.2c-1.1,0-2-0.1-2.7-0.4
		s-1.3-0.6-1.8-1.1c-0.3,0.4-0.6,0.8-1,1.1s-1,0.4-1.7,0.4H905.1z M907.8,352.5c0-0.2,0-0.4,0.1-0.6s0.2-0.4,0.4-0.5
		c0.1-0.2,0.3-0.3,0.5-0.4c0.2-0.1,0.4-0.1,0.6-0.1s0.4,0,0.6,0.1c0.2,0.1,0.4,0.2,0.5,0.4c0.2,0.2,0.3,0.3,0.4,0.5s0.1,0.4,0.1,0.6
		c0,0.2,0,0.4-0.1,0.6s-0.2,0.4-0.4,0.5c-0.2,0.1-0.3,0.3-0.5,0.4c-0.2,0.1-0.4,0.1-0.6,0.1c-0.5,0-0.9-0.2-1.2-0.5
		C907.9,353.3,907.8,353,907.8,352.5z"/>
	<path d="M932.4,344c0.5,0.3,1,0.6,1.7,0.7s1.4,0.2,2.3,0.2h0.1c0.4,0,0.7,0.1,0.8,0.2s0.3,0.3,0.3,0.6v1.1c0,0.2,0,0.4-0.1,0.5
		s-0.1,0.2-0.2,0.3s-0.2,0.1-0.4,0.1s-0.3,0-0.4,0h-0.2c-1.1,0-2-0.1-2.7-0.4s-1.3-0.6-1.8-1.1c-0.3,0.4-0.6,0.8-1,1.1
		c-0.4,0.3-1,0.4-1.7,0.4h-3.7c-0.4,0-0.7-0.1-0.8-0.2s-0.3-0.3-0.3-0.6v-1.1c0-0.2,0-0.4,0.1-0.5c0.1-0.1,0.1-0.2,0.2-0.3
		c0.1-0.1,0.2-0.1,0.4-0.1c0.1,0,0.3,0,0.4,0h3.2c0.3,0,0.6-0.1,0.8-0.4s0.3-0.7,0.3-1.3v-7.5h2.8V344z M927,330.1
		c0-0.2,0-0.4,0.1-0.6s0.2-0.4,0.4-0.5s0.3-0.3,0.5-0.4s0.4-0.1,0.6-0.1s0.4,0,0.6,0.1s0.4,0.2,0.5,0.4s0.3,0.3,0.4,0.5
		s0.1,0.4,0.1,0.6s0,0.4-0.1,0.6s-0.2,0.4-0.4,0.5s-0.3,0.3-0.5,0.4s-0.4,0.1-0.6,0.1c-0.5,0-0.9-0.2-1.2-0.5S927,330.6,927,330.1z
		 M931.5,330.1c0-0.2,0-0.4,0.1-0.6s0.2-0.4,0.4-0.5s0.3-0.3,0.5-0.4s0.4-0.1,0.6-0.1s0.4,0,0.6,0.1s0.4,0.2,0.5,0.4
		s0.3,0.3,0.4,0.5s0.1,0.4,0.1,0.6s0,0.4-0.1,0.6s-0.2,0.4-0.4,0.5s-0.3,0.3-0.5,0.4s-0.4,0.1-0.6,0.1c-0.5,0-0.9-0.2-1.2-0.5
		S931.5,330.6,931.5,330.1z"/>
	<path d="M936.5,347.8c-0.4,0-0.7-0.1-0.8-0.2s-0.3-0.3-0.3-0.6v-1.1c0-0.2,0-0.4,0.1-0.5c0.1-0.1,0.1-0.2,0.2-0.3
		c0.1-0.1,0.2-0.1,0.4-0.1c0.1,0,0.3,0,0.4,0h4.7c0.7,0,1.3,0,1.8-0.1s0.8-0.2,1.1-0.4s0.5-0.4,0.6-0.6s0.2-0.5,0.2-0.8
		c0-0.5-0.1-1-0.4-1.5s-0.7-1-1.2-1.5s-1.1-1-1.9-1.5s-1.5-1-2.4-1.5l6.2-10.7l2,1.4l-4.8,8.3c0.7,0.4,1.4,0.9,2,1.4s1.1,1,1.6,1.6
		s0.8,1.2,1,1.8s0.4,1.3,0.4,2c0,0.4,0,0.8-0.1,1.2c0.5,0.3,1,0.6,1.7,0.8s1.4,0.3,2.3,0.3h0.1c0.4,0,0.7,0.1,0.8,0.2
		s0.3,0.3,0.3,0.6v1.1c0,0.2,0,0.4-0.1,0.5s-0.1,0.2-0.2,0.3s-0.2,0.1-0.4,0.1s-0.3,0-0.4,0h-0.2c-0.6,0-1.1,0-1.6-0.1
		s-0.9-0.2-1.3-0.4s-0.7-0.3-1.1-0.6s-0.6-0.4-0.9-0.7c-0.5,0.6-1.1,1-1.9,1.3s-1.8,0.5-3,0.5H936.5z"/>
	<path d="M956.2,345.6c-0.2,0.4-0.5,0.7-0.7,1s-0.5,0.5-0.8,0.7s-0.6,0.3-0.9,0.4s-0.7,0.1-1.2,0.1h-1.2c-0.4,0-0.7-0.1-0.8-0.2
		s-0.3-0.3-0.3-0.6v-1.1c0-0.2,0-0.4,0.1-0.5c0.1-0.1,0.1-0.2,0.2-0.3c0.1-0.1,0.2-0.1,0.4-0.1c0.1,0,0.3,0,0.4,0h0.7
		c0.6,0,1.2-0.1,1.7-0.4s0.8-0.8,1-1.4c0.3-1.1,0.6-2.1,1-2.9s0.8-1.5,1.2-2.1s0.8-1,1.3-1.4s0.8-0.6,1.3-0.8s0.8-0.3,1.2-0.4
		s0.7-0.1,1.1-0.1c0.7,0,1.3,0.1,1.9,0.3s1.1,0.5,1.5,0.8s0.8,0.7,1.2,1.2s0.6,0.9,0.8,1.4s0.4,1,0.5,1.5s0.2,1,0.2,1.4
		c0,0.4-0.1,0.8-0.2,1.3s-0.3,0.9-0.5,1.3s-0.5,0.8-0.8,1.2s-0.7,0.7-1.2,1s-1,0.5-1.5,0.7s-1.2,0.3-1.9,0.3c-0.7,0-1.3-0.1-1.9-0.2
		s-1.1-0.3-1.6-0.5s-0.9-0.5-1.3-0.7S956.5,345.9,956.2,345.6z M965.4,342.4c0-0.4-0.1-0.8-0.2-1.3s-0.4-1-0.7-1.4s-0.7-0.8-1.1-1.1
		s-1-0.4-1.6-0.4c-0.6,0-1.2,0.2-1.7,0.5s-1,0.7-1.3,1.3s-0.7,1.1-1,1.8s-0.4,1.4-0.6,2.1c0.1,0.1,0.3,0.3,0.6,0.5s0.7,0.3,1.1,0.4
		s0.8,0.2,1.3,0.3s0.9,0.1,1.3,0.1c0.6,0,1.1,0,1.6-0.1s0.9-0.2,1.2-0.4s0.6-0.5,0.8-0.8S965.4,342.9,965.4,342.4z"/>
</g>
</svg>
