<?xml version="1.0" encoding="utf-8"?>
<!-- Generator: Adobe Illustrator 23.0.1, SVG Export Plug-In . SVG Version: 6.00 Build 0)  -->
<svg version="1.1" id="Layer_1" xmlns="http://www.w3.org/2000/svg" xmlns:xlink="http://www.w3.org/1999/xlink" x="0px" y="0px"
	 viewBox="0 0 1110.2 528.7" style="enable-background:new 0 0 1110.2 528.7;" xml:space="preserve">
<image style="overflow:visible;" width="1462" height="1899" xlink:href="Logo El Fedjr - Copie (1).jpg"  transform="matrix(0.24 0 0 0.24 370.3115 36.4524)">
</image>
<g>
	<g>
		<path d="M134.3,223.1l-2.2,6.8h-2.9l7.3-21.6h3.4l7.4,21.6h-3l-2.3-6.8H134.3z M141.3,220.9l-2.1-6.2c-0.5-1.4-0.8-2.7-1.1-3.9
			h-0.1c-0.3,1.3-0.7,2.6-1.1,3.9l-2.1,6.2H141.3z"/>
		<path d="M149.7,227c0.8,0.5,2.3,1.1,3.7,1.1c2,0,3-1,3-2.3c0-1.3-0.8-2.1-2.9-2.8c-2.8-1-4.1-2.5-4.1-4.4c0-2.5,2-4.5,5.3-4.5
			c1.6,0,2.9,0.4,3.8,1l-0.7,2c-0.6-0.4-1.7-0.9-3.2-0.9c-1.7,0-2.6,1-2.6,2.1c0,1.3,0.9,1.9,2.9,2.6c2.7,1,4.1,2.4,4.1,4.7
			c0,2.7-2.1,4.6-5.8,4.6c-1.7,0-3.3-0.4-4.4-1.1L149.7,227z"/>
		<path d="M162.4,227c0.8,0.5,2.3,1.1,3.7,1.1c2,0,3-1,3-2.3c0-1.3-0.8-2.1-2.9-2.8c-2.8-1-4.1-2.5-4.1-4.4c0-2.5,2-4.5,5.3-4.5
			c1.6,0,2.9,0.4,3.8,1l-0.7,2c-0.6-0.4-1.7-0.9-3.2-0.9c-1.7,0-2.6,1-2.6,2.1c0,1.3,0.9,1.9,2.9,2.6c2.7,1,4.1,2.4,4.1,4.7
			c0,2.7-2.1,4.6-5.8,4.6c-1.7,0-3.3-0.4-4.4-1.1L162.4,227z"/>
		<path d="M189.4,222c0,5.7-4,8.2-7.7,8.2c-4.2,0-7.4-3.1-7.4-8c0-5.2,3.4-8.2,7.7-8.2C186.4,214.1,189.4,217.3,189.4,222z
			 M177.2,222.2c0,3.4,2,6,4.7,6c2.7,0,4.7-2.5,4.7-6c0-2.6-1.3-6-4.6-6C178.6,216.2,177.2,219.2,177.2,222.2z"/>
		<path d="M204,229.3c-0.7,0.4-2.4,0.9-4.4,0.9c-4.7,0-7.7-3.2-7.7-7.9c0-4.8,3.3-8.2,8.3-8.2c1.7,0,3.1,0.4,3.9,0.8l-0.6,2.2
			c-0.7-0.4-1.7-0.7-3.3-0.7c-3.6,0-5.5,2.6-5.5,5.9c0,3.6,2.3,5.8,5.4,5.8c1.6,0,2.7-0.4,3.5-0.8L204,229.3z"/>
		<path d="M210.5,210.1c0,1-0.7,1.7-1.8,1.7c-1,0-1.7-0.8-1.7-1.7c0-1,0.7-1.8,1.8-1.8C209.8,208.3,210.5,209.1,210.5,210.1z
			 M207.3,229.9v-15.5h2.8v15.5H207.3z"/>
		<path d="M223.4,229.9l-0.2-2h-0.1c-0.9,1.2-2.5,2.3-4.7,2.3c-3.1,0-4.7-2.2-4.7-4.4c0-3.7,3.3-5.8,9.3-5.8v-0.3
			c0-1.3-0.4-3.6-3.5-3.6c-1.4,0-2.9,0.4-4,1.2l-0.6-1.9c1.3-0.8,3.1-1.4,5.1-1.4c4.7,0,5.9,3.2,5.9,6.3v5.8c0,1.3,0.1,2.7,0.3,3.7
			H223.4z M223,222c-3.1-0.1-6.6,0.5-6.6,3.5c0,1.8,1.2,2.7,2.7,2.7c2,0,3.3-1.3,3.7-2.6c0.1-0.3,0.2-0.6,0.2-0.9V222z"/>
		<path d="M233.5,210v4.4h4v2.1h-4v8.4c0,1.9,0.5,3,2.1,3c0.7,0,1.3-0.1,1.6-0.2l0.1,2.1c-0.5,0.2-1.4,0.4-2.5,0.4
			c-1.3,0-2.4-0.4-3-1.2c-0.8-0.8-1.1-2.2-1.1-4v-8.4h-2.4v-2.1h2.4v-3.7L233.5,210z"/>
		<path d="M243.8,210.1c0,1-0.7,1.7-1.8,1.7c-1,0-1.7-0.8-1.7-1.7c0-1,0.7-1.8,1.8-1.8C243.2,208.3,243.8,209.1,243.8,210.1z
			 M240.7,229.9v-15.5h2.8v15.5H240.7z"/>
		<path d="M262.2,222c0,5.7-4,8.2-7.7,8.2c-4.2,0-7.4-3.1-7.4-8c0-5.2,3.4-8.2,7.7-8.2C259.2,214.1,262.2,217.3,262.2,222z
			 M249.9,222.2c0,3.4,2,6,4.7,6c2.7,0,4.7-2.5,4.7-6c0-2.6-1.3-6-4.6-6C251.4,216.2,249.9,219.2,249.9,222.2z"/>
		<path d="M265.8,218.6c0-1.6,0-2.9-0.1-4.2h2.5l0.2,2.6h0.1c0.8-1.5,2.6-2.9,5.1-2.9c2.1,0,5.5,1.3,5.5,6.6v9.2h-2.8V221
			c0-2.5-0.9-4.6-3.6-4.6c-1.9,0-3.3,1.3-3.8,2.9c-0.1,0.4-0.2,0.8-0.2,1.3v9.3h-2.8V218.6z"/>
	</g>
	<g>
		<path d="M45.5,306.3v11.7c0,0.9,0,1.8,0.1,2.5H44l-0.1-1.7h0c-0.5,1.1-1.7,1.9-3.3,1.9c-2.3,0-4.1-2-4.1-4.9c0-3.2,2-5.2,4.3-5.2
			c1.5,0,2.5,0.7,2.9,1.5h0v-5.8H45.5z M43.8,314.8c0-0.2,0-0.5-0.1-0.7c-0.3-1.1-1.2-2-2.5-2c-1.8,0-2.9,1.6-2.9,3.7
			c0,2,1,3.6,2.9,3.6c1.2,0,2.3-0.8,2.6-2.1c0.1-0.2,0.1-0.5,0.1-0.8V314.8z"/>
		<path d="M50.8,306.8c-0.5,1.7-1.3,3.8-1.9,4.7l-1.1,0.1c0.4-1.2,1-3.3,1.2-4.7L50.8,306.8z"/>
		<path d="M57.7,320.6l-0.1-1.2h-0.1c-0.5,0.8-1.6,1.4-3,1.4c-2,0-3-1.4-3-2.8c0-2.3,2.1-3.6,5.8-3.6v-0.2c0-0.8-0.2-2.2-2.2-2.2
			c-0.9,0-1.8,0.3-2.5,0.7l-0.4-1.2c0.8-0.5,2-0.9,3.2-0.9c3,0,3.7,2,3.7,4v3.6c0,0.8,0,1.7,0.2,2.3H57.7z M57.4,315.6
			c-1.9,0-4.1,0.3-4.1,2.2c0,1.1,0.8,1.7,1.7,1.7c1.3,0,2.1-0.8,2.3-1.6c0.1-0.2,0.1-0.4,0.1-0.6V315.6z"/>
		<path d="M63.9,308.1c0,0.6-0.4,1.1-1.1,1.1c-0.6,0-1.1-0.5-1.1-1.1c0-0.6,0.5-1.1,1.1-1.1C63.5,307,63.9,307.5,63.9,308.1z
			 M62,320.6v-9.7h1.8v9.7H62z"/>
		<path d="M75,306.3v11.7c0,0.9,0,1.8,0.1,2.5h-1.6l-0.1-1.7h0c-0.5,1.1-1.7,1.9-3.3,1.9c-2.3,0-4.1-2-4.1-4.9c0-3.2,2-5.2,4.3-5.2
			c1.5,0,2.5,0.7,2.9,1.5h0v-5.8H75z M73.3,314.8c0-0.2,0-0.5-0.1-0.7c-0.3-1.1-1.2-2-2.5-2c-1.8,0-2.9,1.6-2.9,3.7
			c0,2,1,3.6,2.9,3.6c1.2,0,2.3-0.8,2.6-2.1c0.1-0.2,0.1-0.5,0.1-0.8V314.8z"/>
		<path d="M78.9,316c0,2.4,1.6,3.4,3.3,3.4c1.3,0,2-0.2,2.7-0.5l0.3,1.3c-0.6,0.3-1.7,0.6-3.2,0.6c-3,0-4.8-2-4.8-4.9
			s1.7-5.2,4.5-5.2c3.2,0,4,2.8,4,4.6c0,0.4,0,0.6-0.1,0.8H78.9z M84.1,314.8c0-1.1-0.5-2.9-2.4-2.9c-1.8,0-2.6,1.6-2.7,2.9H84.1z"
			/>
		<path d="M97.6,320.6l-0.1-1.2h-0.1c-0.5,0.8-1.6,1.4-3,1.4c-2,0-3-1.4-3-2.8c0-2.3,2.1-3.6,5.8-3.6v-0.2c0-0.8-0.2-2.2-2.2-2.2
			c-0.9,0-1.8,0.3-2.5,0.7l-0.4-1.2c0.8-0.5,2-0.9,3.2-0.9c3,0,3.7,2,3.7,4v3.6c0,0.8,0,1.7,0.2,2.3H97.6z M97.3,315.6
			c-1.9,0-4.1,0.3-4.1,2.2c0,1.1,0.8,1.7,1.7,1.7c1.3,0,2.1-0.8,2.3-1.6c0.1-0.2,0.1-0.4,0.1-0.6V315.6z"/>
		<path d="M109.9,317.9c0,1,0,1.9,0.1,2.6h-1.6l-0.1-1.6h0c-0.5,0.8-1.5,1.8-3.2,1.8c-1.5,0-3.3-0.8-3.3-4.2v-5.7h1.8v5.4
			c0,1.8,0.6,3.1,2.2,3.1c1.2,0,2-0.8,2.3-1.6c0.1-0.3,0.2-0.6,0.2-0.9v-5.9h1.8V317.9z"/>
		<path d="M113.7,310.9l1.4,2.1c0.4,0.5,0.7,1,1,1.6h0.1c0.3-0.6,0.6-1.1,1-1.6l1.4-2.1h1.9l-3.3,4.7l3.4,5h-2l-1.4-2.2
			c-0.4-0.6-0.7-1.1-1-1.7h0c-0.3,0.6-0.7,1.1-1,1.7l-1.4,2.2h-1.9l3.4-4.9l-3.3-4.7H113.7z"/>
		<path d="M126.4,314c0-1.2,0-2.2-0.1-3.2h1.6l0.1,1.7h0c0.7-1.2,1.9-1.9,3.4-1.9c2.3,0,4.1,2,4.1,4.9c0,3.5-2.1,5.2-4.4,5.2
			c-1.3,0-2.4-0.6-3-1.5h0v5.3h-1.7V314z M128.1,316.6c0,0.3,0,0.5,0.1,0.7c0.3,1.2,1.4,2.1,2.6,2.1c1.9,0,2.9-1.5,2.9-3.7
			c0-1.9-1-3.6-2.9-3.6c-1.2,0-2.3,0.9-2.7,2.2c-0.1,0.2-0.1,0.5-0.1,0.7V316.6z"/>
		<path d="M138.7,316c0,2.4,1.6,3.4,3.3,3.4c1.3,0,2-0.2,2.7-0.5l0.3,1.3c-0.6,0.3-1.7,0.6-3.2,0.6c-3,0-4.8-2-4.8-4.9
			s1.7-5.2,4.5-5.2c3.2,0,4,2.8,4,4.6c0,0.4,0,0.6-0.1,0.8H138.7z M143.9,314.8c0-1.1-0.5-2.9-2.4-2.9c-1.8,0-2.6,1.6-2.7,2.9H143.9
			z"/>
		<path d="M147.8,313.9c0-1.1,0-2.1-0.1-3h1.5l0.1,1.9h0.1c0.4-1.3,1.5-2.1,2.7-2.1c0.2,0,0.3,0,0.5,0.1v1.7c-0.2,0-0.4-0.1-0.6-0.1
			c-1.2,0-2.1,0.9-2.4,2.3c0,0.2-0.1,0.5-0.1,0.8v5.2h-1.7V313.9z"/>
		<path d="M154.1,318.8c0.5,0.3,1.4,0.7,2.3,0.7c1.3,0,1.9-0.6,1.9-1.4c0-0.8-0.5-1.3-1.8-1.8c-1.7-0.6-2.6-1.6-2.6-2.7
			c0-1.6,1.3-2.8,3.3-2.8c1,0,1.8,0.3,2.4,0.6l-0.4,1.3c-0.4-0.2-1.1-0.6-2-0.6c-1,0-1.6,0.6-1.6,1.3c0,0.8,0.6,1.2,1.8,1.6
			c1.7,0.6,2.5,1.5,2.5,2.9c0,1.7-1.3,2.9-3.6,2.9c-1.1,0-2-0.3-2.7-0.7L154.1,318.8z"/>
		<path d="M171,315.6c0,3.6-2.5,5.1-4.8,5.1c-2.6,0-4.6-1.9-4.6-5c0-3.2,2.1-5.1,4.8-5.1C169.1,310.6,171,312.7,171,315.6z
			 M163.3,315.7c0,2.1,1.2,3.7,2.9,3.7c1.7,0,2.9-1.6,2.9-3.8c0-1.6-0.8-3.7-2.9-3.7C164.2,312,163.3,313.9,163.3,315.7z"/>
		<path d="M173.2,313.5c0-1,0-1.8-0.1-2.6h1.6l0.1,1.6h0c0.5-0.9,1.6-1.8,3.2-1.8c1.3,0,3.4,0.8,3.4,4.1v5.8h-1.8V315
			c0-1.6-0.6-2.9-2.2-2.9c-1.2,0-2.1,0.8-2.4,1.8c-0.1,0.2-0.1,0.5-0.1,0.8v5.8h-1.8V313.5z"/>
		<path d="M184.3,313.5c0-1,0-1.8-0.1-2.6h1.6l0.1,1.6h0c0.5-0.9,1.6-1.8,3.2-1.8c1.3,0,3.4,0.8,3.4,4.1v5.8h-1.8V315
			c0-1.6-0.6-2.9-2.2-2.9c-1.2,0-2.1,0.8-2.4,1.8c-0.1,0.2-0.1,0.5-0.1,0.8v5.8h-1.8V313.5z"/>
		<path d="M196.4,316c0,2.4,1.6,3.4,3.3,3.4c1.3,0,2-0.2,2.7-0.5l0.3,1.3c-0.6,0.3-1.7,0.6-3.2,0.6c-3,0-4.8-2-4.8-4.9
			s1.7-5.2,4.5-5.2c3.2,0,4,2.8,4,4.6c0,0.4,0,0.6-0.1,0.8H196.4z M201.5,314.8c0-1.1-0.5-2.9-2.4-2.9c-1.8,0-2.6,1.6-2.7,2.9H201.5
			z"/>
		<path d="M205.2,318.8c0.5,0.3,1.4,0.7,2.3,0.7c1.3,0,1.9-0.6,1.9-1.4c0-0.8-0.5-1.3-1.8-1.8c-1.7-0.6-2.6-1.6-2.6-2.7
			c0-1.6,1.3-2.8,3.3-2.8c1,0,1.8,0.3,2.4,0.6l-0.4,1.3c-0.4-0.2-1.1-0.6-2-0.6c-1,0-1.6,0.6-1.6,1.3c0,0.8,0.6,1.2,1.8,1.6
			c1.7,0.6,2.5,1.5,2.5,2.9c0,1.7-1.3,2.9-3.6,2.9c-1.1,0-2-0.3-2.7-0.7L205.2,318.8z"/>
		<path d="M222.9,320.6l-0.1-1.2h-0.1c-0.5,0.8-1.6,1.4-3,1.4c-2,0-3-1.4-3-2.8c0-2.3,2.1-3.6,5.8-3.6v-0.2c0-0.8-0.2-2.2-2.2-2.2
			c-0.9,0-1.8,0.3-2.5,0.7l-0.4-1.2c0.8-0.5,2-0.9,3.2-0.9c3,0,3.7,2,3.7,4v3.6c0,0.8,0,1.7,0.2,2.3H222.9z M222.7,315.6
			c-1.9,0-4.1,0.3-4.1,2.2c0,1.1,0.8,1.7,1.7,1.7c1.3,0,2.1-0.8,2.3-1.6c0.1-0.2,0.1-0.4,0.1-0.6V315.6z"/>
		<path d="M229.3,308.1v2.8h2.5v1.3h-2.5v5.2c0,1.2,0.3,1.9,1.3,1.9c0.5,0,0.8-0.1,1-0.1l0.1,1.3c-0.3,0.1-0.9,0.2-1.6,0.2
			c-0.8,0-1.5-0.3-1.9-0.7c-0.5-0.5-0.7-1.4-0.7-2.5v-5.3H226v-1.3h1.5v-2.3L229.3,308.1z"/>
		<path d="M235.9,308.1v2.8h2.5v1.3h-2.5v5.2c0,1.2,0.3,1.9,1.3,1.9c0.5,0,0.8-0.1,1-0.1l0.1,1.3c-0.3,0.1-0.9,0.2-1.6,0.2
			c-0.8,0-1.5-0.3-1.9-0.7c-0.5-0.5-0.7-1.4-0.7-2.5v-5.3h-1.5v-1.3h1.5v-2.3L235.9,308.1z"/>
		<path d="M241.2,316c0,2.4,1.6,3.4,3.3,3.4c1.3,0,2-0.2,2.7-0.5l0.3,1.3c-0.6,0.3-1.7,0.6-3.2,0.6c-3,0-4.8-2-4.8-4.9
			s1.7-5.2,4.5-5.2c3.2,0,4,2.8,4,4.6c0,0.4,0,0.6-0.1,0.8H241.2z M246.4,314.8c0-1.1-0.5-2.9-2.4-2.9c-1.8,0-2.6,1.6-2.7,2.9H246.4
			z"/>
		<path d="M252.2,308.1c0,0.6-0.4,1.1-1.1,1.1c-0.6,0-1.1-0.5-1.1-1.1c0-0.6,0.5-1.1,1.1-1.1C251.8,307,252.2,307.5,252.2,308.1z
			 M250.3,320.6v-9.7h1.8v9.7H250.3z"/>
		<path d="M255,313.5c0-1,0-1.8-0.1-2.6h1.6l0.1,1.6h0c0.5-0.9,1.6-1.8,3.2-1.8c1.3,0,3.4,0.8,3.4,4.1v5.8h-1.8V315
			c0-1.6-0.6-2.9-2.2-2.9c-1.2,0-2.1,0.8-2.4,1.8c-0.1,0.2-0.1,0.5-0.1,0.8v5.8H255V313.5z"/>
		<path d="M268.1,308.1v2.8h2.5v1.3h-2.5v5.2c0,1.2,0.3,1.9,1.3,1.9c0.5,0,0.8-0.1,1-0.1l0.1,1.3c-0.3,0.1-0.9,0.2-1.6,0.2
			c-0.8,0-1.5-0.3-1.9-0.7c-0.5-0.5-0.7-1.4-0.7-2.5v-5.3h-1.5v-1.3h1.5v-2.3L268.1,308.1z"/>
		<path d="M273.5,316c0,2.4,1.6,3.4,3.3,3.4c1.3,0,2-0.2,2.7-0.5l0.3,1.3c-0.6,0.3-1.7,0.6-3.2,0.6c-3,0-4.8-2-4.8-4.9
			s1.7-5.2,4.5-5.2c3.2,0,4,2.8,4,4.6c0,0.4,0,0.6-0.1,0.8H273.5z M278.6,314.8c0-1.1-0.5-2.9-2.4-2.9c-1.8,0-2.6,1.6-2.7,2.9H278.6
			z"/>
		<path d="M282.3,318.8c0.5,0.3,1.4,0.7,2.3,0.7c1.3,0,1.9-0.6,1.9-1.4c0-0.8-0.5-1.3-1.8-1.8c-1.7-0.6-2.6-1.6-2.6-2.7
			c0-1.6,1.3-2.8,3.3-2.8c1,0,1.8,0.3,2.4,0.6l-0.4,1.3c-0.4-0.2-1.1-0.6-2-0.6c-1,0-1.6,0.6-1.6,1.3c0,0.8,0.6,1.2,1.8,1.6
			c1.7,0.6,2.5,1.5,2.5,2.9c0,1.7-1.3,2.9-3.6,2.9c-1.1,0-2-0.3-2.7-0.7L282.3,318.8z"/>
		<path d="M303,306.3v11.7c0,0.9,0,1.8,0.1,2.5h-1.6l-0.1-1.7h0c-0.5,1.1-1.7,1.9-3.3,1.9c-2.3,0-4.1-2-4.1-4.9c0-3.2,2-5.2,4.3-5.2
			c1.5,0,2.5,0.7,2.9,1.5h0v-5.8H303z M301.3,314.8c0-0.2,0-0.5-0.1-0.7c-0.3-1.1-1.2-2-2.5-2c-1.8,0-2.9,1.6-2.9,3.7
			c0,2,1,3.6,2.9,3.6c1.2,0,2.3-0.8,2.6-2.1c0.1-0.2,0.1-0.5,0.1-0.8V314.8z"/>
		<path d="M306.9,316c0,2.4,1.6,3.4,3.3,3.4c1.3,0,2-0.2,2.7-0.5l0.3,1.3c-0.6,0.3-1.7,0.6-3.2,0.6c-3,0-4.8-2-4.8-4.9
			s1.7-5.2,4.5-5.2c3.2,0,4,2.8,4,4.6c0,0.4,0,0.6-0.1,0.8H306.9z M312.1,314.8c0-1.1-0.5-2.9-2.4-2.9c-1.8,0-2.6,1.6-2.7,2.9H312.1
			z"/>
		<path d="M327.1,320.2c-0.5,0.2-1.5,0.6-2.8,0.6c-2.9,0-4.8-2-4.8-4.9c0-3,2-5.1,5.2-5.1c1,0,2,0.3,2.4,0.5l-0.4,1.4
			c-0.4-0.2-1.1-0.5-2-0.5c-2.2,0-3.4,1.6-3.4,3.7c0,2.2,1.4,3.6,3.4,3.6c1,0,1.7-0.3,2.2-0.5L327.1,320.2z"/>
		<path d="M334.5,320.6l-0.1-1.2h-0.1c-0.5,0.8-1.6,1.4-3,1.4c-2,0-3-1.4-3-2.8c0-2.3,2.1-3.6,5.8-3.6v-0.2c0-0.8-0.2-2.2-2.2-2.2
			c-0.9,0-1.8,0.3-2.5,0.7l-0.4-1.2c0.8-0.5,2-0.9,3.2-0.9c3,0,3.7,2,3.7,4v3.6c0,0.8,0,1.7,0.2,2.3H334.5z M334.3,315.6
			c-1.9,0-4.1,0.3-4.1,2.2c0,1.1,0.8,1.7,1.7,1.7c1.3,0,2.1-0.8,2.3-1.6c0.1-0.2,0.1-0.4,0.1-0.6V315.6z"/>
		<path d="M338.8,313.5c0-1,0-1.8-0.1-2.6h1.6l0.1,1.6h0c0.5-0.9,1.6-1.8,3.2-1.8c1.3,0,3.4,0.8,3.4,4.1v5.8h-1.8V315
			c0-1.6-0.6-2.9-2.2-2.9c-1.2,0-2.1,0.8-2.4,1.8c-0.1,0.2-0.1,0.5-0.1,0.8v5.8h-1.8V313.5z"/>
		<path d="M356.8,320.2c-0.5,0.2-1.5,0.6-2.8,0.6c-2.9,0-4.8-2-4.8-4.9c0-3,2-5.1,5.2-5.1c1,0,2,0.3,2.4,0.5l-0.4,1.4
			c-0.4-0.2-1.1-0.5-2-0.5c-2.2,0-3.4,1.6-3.4,3.7c0,2.2,1.4,3.6,3.4,3.6c1,0,1.7-0.3,2.2-0.5L356.8,320.2z"/>
		<path d="M359.7,316c0,2.4,1.6,3.4,3.3,3.4c1.3,0,2-0.2,2.7-0.5l0.3,1.3c-0.6,0.3-1.7,0.6-3.2,0.6c-3,0-4.8-2-4.8-4.9
			s1.7-5.2,4.5-5.2c3.2,0,4,2.8,4,4.6c0,0.4,0,0.6-0.1,0.8H359.7z M364.9,314.8c0-1.1-0.5-2.9-2.4-2.9c-1.8,0-2.6,1.6-2.7,2.9H364.9
			z"/>
		<path d="M368.8,313.9c0-1.1,0-2.1-0.1-3h1.5l0.1,1.9h0.1c0.4-1.3,1.5-2.1,2.7-2.1c0.2,0,0.3,0,0.5,0.1v1.7c-0.2,0-0.4-0.1-0.6-0.1
			c-1.2,0-2.1,0.9-2.4,2.3c0,0.2-0.1,0.5-0.1,0.8v5.2h-1.7V313.9z"/>
	</g>
	<g>
		<path d="M87.1,258.4c1.5-5.4,4.2-12.3,6-15.2l3.6-0.4c-1.4,3.8-3.1,10.4-3.8,15L87.1,258.4z M96.7,258.4c1.4-5.4,4.2-12.3,6-15.2
			l3.6-0.4c-1.4,3.8-3.1,10.4-3.8,15L96.7,258.4z"/>
		<path d="M134.8,266.4H118v15.6h18.7v4.7h-24.3v-43.1h23.3v4.7H118v13.6h16.8V266.4z"/>
		<path d="M143.8,241.2h5.6v45.4h-5.6V241.2z"/>
		<path d="M172.6,243.5h23.2v4.7h-17.7v14.3h16.3v4.6h-16.3v19.5h-5.6V243.5z"/>
		<path d="M204.7,272.1c0.1,7.6,5,10.8,10.6,10.8c4,0,6.5-0.7,8.6-1.6l1,4c-2,0.9-5.4,1.9-10.3,1.9c-9.5,0-15.2-6.3-15.2-15.6
			c0-9.3,5.5-16.7,14.5-16.7c10.1,0,12.8,8.9,12.8,14.6c0,1.2-0.1,2-0.2,2.6H204.7z M221.3,268.1c0.1-3.6-1.5-9.2-7.8-9.2
			c-5.7,0-8.2,5.2-8.6,9.2H221.3z"/>
		<path d="M260.4,241.2v37.4c0,2.8,0.1,5.9,0.3,8h-5.1l-0.3-5.4h-0.1c-1.7,3.5-5.5,6.1-10.6,6.1c-7.5,0-13.2-6.3-13.2-15.7
			c-0.1-10.3,6.3-16.6,13.9-16.6c4.7,0,7.9,2.2,9.3,4.7h0.1v-18.5H260.4z M254.8,268.2c0-0.7-0.1-1.7-0.3-2.4
			c-0.8-3.6-3.9-6.5-8.1-6.5c-5.8,0-9.3,5.1-9.3,12c0,6.3,3.1,11.5,9.2,11.5c3.8,0,7.2-2.5,8.3-6.7c0.2-0.8,0.3-1.5,0.3-2.4V268.2z"
			/>
		<path d="M262.2,295.6c2.6-0.2,4.8-0.9,6.1-2.4c1.5-1.8,2.1-4.2,2.1-11.6v-25.9h5.6v28.1c0,6-1,9.9-3.7,12.7
			c-2.5,2.5-6.6,3.5-9.6,3.5L262.2,295.6z M276.7,246.9c0.1,1.9-1.3,3.5-3.5,3.5c-2.1,0-3.5-1.6-3.5-3.5c0-2,1.5-3.5,3.6-3.5
			C275.4,243.4,276.7,244.9,276.7,246.9z"/>
		<path d="M285.3,265.3c0-3.6-0.1-6.8-0.3-9.7h4.9l0.2,6.1h0.3c1.4-4.2,4.8-6.8,8.6-6.8c0.6,0,1.1,0.1,1.6,0.2v5.3
			c-0.6-0.1-1.2-0.2-1.9-0.2c-4,0-6.8,3-7.6,7.2c-0.1,0.8-0.3,1.7-0.3,2.6v16.5h-5.6V265.3z"/>
		<path d="M315.2,242.8c-1.5,5.4-4.2,12.2-6,15.2l-3.6,0.4c1.3-3.8,3.1-10.4,3.8-15L315.2,242.8z M324.7,242.8
			c-1.5,5.4-4.2,12.2-6,15.2l-3.6,0.4c1.4-3.8,3.1-10.4,3.8-15L324.7,242.8z"/>
	</g>
</g>
<g>
	<g>
		<path d="M851.5,228.1c-2.8,0-5.5-2.6-5.4-6.1c0.1-5.4,4.4-7.3,10.5-6.9v-1.5l1.9-0.6l0,10.9c0.1,2.7,1.6,4.2,4.2,4.2h1.9v1.8h-2.4
			c-4,0-5.2-2.7-5.5-4.8C856.7,225.1,855.3,228.1,851.5,228.1z M851.8,226.4c5.2,0,4.8-5.6,4.7-9.5c-2.3,0.1-8.2-0.8-8.5,5.1
			C848,223.2,848.8,226.4,851.8,226.4z M852.1,208.1h-2.2v2.4h2.2V208.1z M857,208.1h-2.2v2.4h2.2V208.1z"/>
		<path d="M864.3,229.9v-1.8h2.9c2.6,0,4.2-1.6,4.2-4.3v-8.5h1.9v7.6c0.1,2.9,1.6,5.2,4.8,5.2h1.4v1.8h-1.1c-2.7,0-4.9-1.8-5.6-3.5
			c-0.6,1.8-2,3.5-5.2,3.5H864.3z M868.6,236.1h-2.2v-2.4h2.2V236.1z M873.5,236.1h-2.2v-2.4h2.2V236.1z"/>
		<path d="M898.7,220.5c-1.3,2.3-3.5,5.2-6.4,7.3c0.7,0.2,1.5,0.4,2.4,0.4h7.2v1.8h-6.6c-1.7,0-3.3-0.5-4.7-1.2
			c-1.4,0.7-3,1.2-4.7,1.2h-6.6v-1.8h7.2c0.8,0,1.6-0.1,2.4-0.4c-3-2.1-5.2-5-6.4-7.3c1.1-6.2,5.3-7.1,8.1-7.1
			C893.4,213.4,897.6,214.2,898.7,220.5z M890.6,227c3.6-2,5.7-6.1,6-7c-1-4.7-5-5.1-6-5.1c-1,0-4.9,0.4-6,5.1
			C884.9,220.9,886.9,224.9,890.6,227z"/>
		<path d="M902.8,228.1c1.3,0,4.1-0.7,4.2-4.2c0.2-3.8,2.6-8.1,7.4-8.1c4.9,0,7.3,4.2,7.5,8c0.4,2.3,1.6,4.3,4.5,4.3h1.8v1.8h-1.5
			c-2.4,0-4.6-1.8-5.2-3c-0.9,3.2-3.3,5.7-7.1,5.7c-3.4,0-5.8-2.1-6.8-4.8c-0.6,1-2.1,2.1-4.5,2.1h-1.5v-1.8H902.8z M914.5,217.5
			c-3.8,0-5.4,3.8-5.4,6.7c0,3,1.6,6.7,5.4,6.7c3.8,0,5.4-3.7,5.4-6.7C919.9,221.3,918.3,217.5,914.5,217.5z"/>
		<path d="M927.9,229.9v-1.8h17.8l0-2c0.1-4.7-2-10.1-7.9-10.1c-3,0-5.3,1.4-5.6,4.2h-1.8c0.3-4.1,3.7-6,7.5-6
			c6.9,0,9.9,5.6,9.9,11.9v3.8H927.9z M938.9,236h-2.2v-2.4h2.2V236z"/>
	</g>
	<g>
		<path d="M729,311h1.1v5.5c0,4.1-2.2,6.8-5.8,6.8c-3.5,0-5.7-2.7-5.7-6.8c0-0.9,0.2-2,0.4-2.8h1.2c-0.4,0.9-0.5,1.9-0.5,2.8
			c0,3.1,1.7,5.7,4.6,5.7c3.1,0,4.7-2.7,4.7-5.7V311z M725,314.4h-1.3V313h1.3V314.4z"/>
		<path d="M736.2,319.9c-2.9,0-3.2-2.6-3.2-3.6v-9.3h1.1v9.5c0,1.6,0.9,2.5,2.4,2.5h1v1H736.2z"/>
		<path d="M741.1,315c1.5-3,4.2-3.7,6.4-3.7c2.4,0,5.1,1.4,5.1,4.5c0,2.6-1.9,4.1-4.4,4.1h-10.9v-1h2.9v-12h1.1L741.1,315z
			 M748.2,318.9c1.9,0,3.3-1.4,3.3-3.1c0-2.6-2.4-3.5-3.8-3.5c-5.4,0-6.6,4.5-6.8,6.6H748.2z"/>
		<path d="M758.6,311.6h1.1v4.4c0.1,1.6,0.9,2.8,2.7,2.8h0.8v1h-0.6c-1.3,0-2.4-0.7-2.9-1.5v1.5c0,1.9-1.6,3.4-3.7,3.4
			c-0.8,0-1.8-0.4-2-0.5c0,0-0.1-0.5-0.1-1c0.8,0.5,1.7,0.5,2,0.5c1.4,0,2.5-0.9,2.7-2.4V311.6z"/>
		<path d="M763.1,319.9v-1h1.8c1.5,0,2.4-0.9,2.4-2.5v-4.8h1.1v4.4c0,1.6,0.8,3.1,2.6,3.1c1.5,0,2.4-0.9,2.4-2.5v-5h1.1v4.4
			c0,1.6,0.8,3.1,2.6,3.1c1.5,0,2.4-0.9,2.4-2.5V311h1.1v5.3c0.2,1.4,0.9,2.6,2.6,2.6h1v1h-0.9c-1.4,0-2.6-1-2.9-1.7l-0.1-0.1
			c-0.3,1-1.1,2-2.9,2c-1.4,0-2.4-0.9-3.1-2c-0.4,1.2-1.5,2-2.9,2c-1.2,0-2.2-0.5-2.8-1.6c-0.1-0.2-0.2-0.3-0.3-0.5
			c-0.3,1-1.1,1.9-2.9,1.9H763.1z"/>
		<path d="M783.9,319.9v-1h1.7c1.5,0,2.4-0.9,2.4-2.5v-9.5h1.1v9.3c0,1-0.2,3.6-3.2,3.6H783.9z"/>
		<path d="M793.1,319.9H792v-13h1.1V319.9z"/>
		<path d="M798.7,319.9l0.4-1h1.3v-2.2c0-1.9,0.8-3.7,3.2-3.7c1.4,0,2.5,1,2.6,2.5h-1.1c-0.1-1-0.6-1.6-1.5-1.6c-1.5,0-2,1.2-2,2.7
			v2.2h3.1c0.4,0,1-0.2,1.1-0.6l0.8,0.6c-0.5,0.8-1.2,1-2,1H798.7z"/>
		<path d="M810.5,319.9h-1.1v-13h1.1V319.9z"/>
		<path d="M818.7,313.9c-0.1-1.5-0.8-1.9-2.1-1.9c-1.1,0-2.2,0.3-2.3,1.6h-1.1c0.3-1.9,1.7-2.6,3.4-2.6c2,0,3.2,0.9,3.2,3v4.9h2.8v1
			H813v-1h5.7V313.9z"/>
		<path d="M822.6,319.9v-1h1.7c1.5,0,2.4-0.9,2.4-2.5V311h1.1v5.3c0,1-0.2,3.6-3.2,3.6H822.6z M826.6,323.4h-1.3V322h1.3V323.4z"/>
		<path d="M843.9,311h1.1v4.9c0,1.7,0.9,3,2.7,3h0.8v1h-0.6c-1.4,0-2.6-0.8-3-1.7c-0.5,3.1-2.6,5.2-5.7,5.2c-3.5,0-5.7-2.7-5.7-6.8
			c0-0.9,0.2-2,0.4-2.8h1.2c-0.4,0.9-0.5,1.9-0.5,2.8c0,3.1,1.7,5.7,4.6,5.7c3.1,0,4.7-2.7,4.7-5.7V311z M839.9,314.4h-1.3V313h1.3
			V314.4z"/>
		<path d="M848.3,319.9v-1h1.6c1.5,0,2.4-0.9,2.4-2.5v-4.8h1.1v4.3c0,1.7,0.9,3,2.7,3h0.8v1h-0.6c-1.5,0-2.8-1-3.2-2
			c-0.3,1-1.1,2-2.9,2H848.3z M850.8,323.4h-1.3V322h1.3V323.4z M853.5,323.4h-1.3V322h1.3V323.4z"/>
		<path d="M856.9,319.9v-1h1.7c1.5,0,2.4-0.9,2.4-2.5V311h1.1v5.3c0,1-0.2,3.6-3.2,3.6H856.9z M860.9,323.4h-1.3V322h1.3V323.4z"/>
		<path d="M868.1,319.9c-2.9,0-3.2-2.6-3.2-3.6v-9.3h1.1v9.5c0,1.6,0.9,2.5,2.4,2.5h1v1H868.1z"/>
		<path d="M887.3,318.9v1h-18.2v-1h3v-6.1h1.1l-0.2,2.6c1.4-3.2,4.3-4,6.5-4c2.4,0,5.1,1.4,5.1,4.5c0,1.3-0.5,2.4-1.4,3.1H887.3z
			 M880.2,318.9c1.9,0,3.3-1.4,3.3-3.1c0-2.6-2.4-3.5-3.8-3.5c-5.4,0-6.6,4.5-6.8,6.6H880.2z"/>
		<path d="M887.9,318.9c0.7,0,2.3-0.4,2.4-2.4c0.1-2.2,1.5-4.6,4.2-4.6c2.8,0,4.1,2.4,4.2,4.5c0.2,1.3,0.9,2.5,2.6,2.5h1v1h-0.9
			c-1.4,0-2.6-1-2.9-1.7c-0.5,1.8-1.9,3.2-4,3.2c-1.9,0-3.3-1.2-3.9-2.7c-0.4,0.6-1.2,1.2-2.6,1.2h-0.9v-1H887.9z M894.5,312.8
			c-2.2,0-3,2.1-3,3.8c0,1.7,0.9,3.8,3,3.8c2.2,0,3.1-2.1,3.1-3.8C897.5,315,896.6,312.8,894.5,312.8z"/>
		<path d="M902.2,319.9v-1h1.7c1.5,0,2.4-0.9,2.4-2.5v-9.5h1.1v9.3c0,1-0.2,3.6-3.2,3.6H902.2z"/>
		<path d="M911.3,319.9h-1.1v-13h1.1V319.9z"/>
		<path d="M927.3,312.7h1.1l-0.2,2.8c1.5-3.4,4.3-4.2,6.6-4.2c2.4,0,5.1,1.4,5.1,4.5c0,2.6-1.9,4.1-4.4,4.1h-7.7
			c-0.8,2.1-2.6,3.5-5.2,3.5c-3.6,0-5.6-2.7-5.6-6.8c0-0.9,0.1-1.9,0.5-2.8h1.1c-0.3,0.9-0.5,1.9-0.5,2.8c0,3.1,1.4,5.8,4.6,5.8
			c3.4,0,4.8-2.7,4.8-5.8V312.7z M935.5,318.9c1.9,0,3.3-1.4,3.3-3.1c0-2.6-2.4-3.5-3.8-3.5c-5.4,0-6.6,4.5-6.8,6.6H935.5z"/>
		<path d="M946,319.9c-2.9,0-3.2-2.6-3.2-3.6v-9.3h1.1v9.5c0,1.6,0.9,2.5,2.4,2.5h1v1H946z"/>
		<path d="M947.1,319.9v-1h10.1l0-1.1c0-2.7-1.2-5.7-4.5-5.7c-1.7,0-3,0.8-3.2,2.4h-1c0.2-2.3,2.1-3.4,4.2-3.4
			c3.9,0,5.6,3.2,5.6,6.8v1.1h3v1H947.1z M953.3,308.2H952v-1.3h1.3V308.2z"/>
		<path d="M961.1,319.9v-1h1.7c1.5,0,2.4-0.9,2.4-2.5v-4.8h1.1v4.4c0,1.6,0.8,3.1,2.6,3.1c1.5,0,2.4-0.9,2.4-2.5v-5h1.1v4.4
			c0,1.6,0.8,3.1,2.6,3.1c1.5,0,2.4-0.9,2.4-2.5V311h1.1v5.5c0,1-0.2,3.7-3.2,3.7c-1.4,0-2.4-0.9-3.1-2c-0.4,1.2-1.5,2-2.9,2
			c-1.2,0-2.2-0.5-2.8-1.6c-0.1-0.2-0.2-0.3-0.3-0.5c-0.3,1-1.1,1.9-2.9,1.9H961.1z M971.1,308.2h-1.3v-1.3h1.3V308.2z M972.4,306
			h-1.2v-1.3h1.2V306z M973.8,308.2h-1.3v-1.3h1.3V308.2z"/>
		<path d="M979.8,306.2l0.2-0.6h0.5v-0.7c0-0.8,0.4-1.6,1.3-1.6c0.7,0,1.2,0.6,1.2,1.2h-0.7c0-0.3-0.2-0.6-0.6-0.6
			c-0.5,0-0.6,0.4-0.6,0.9v0.7h1.1c0.1,0,0.3,0,0.4-0.2l0.5,0.4c-0.3,0.4-0.6,0.4-1,0.4H979.8z M983.3,319.9c3,0,3.2-2.6,3.2-3.6
			v-9.3h-1.1v9.5c0,1.2-0.5,1.9-1.3,2.3l-2.8-11.5h-1.1l2.9,11.6h-2l-0.5,1H983.3z"/>
		<path d="M990.5,319.9h-1.1v-13h1.1V319.9z"/>
		<path d="M1004.5,315.1c0,2.4-1.3,4.8-4.2,4.8c-2.8,0-4.2-2.4-4.2-4.8s1.4-4.8,4.2-4.8h4.2V315.1z M1003.3,311.3h-3.1
			c-2.1,0-3,2.1-3,3.8c0,1.7,0.9,3.8,3,3.8c2.2,0,3.1-2.1,3.1-3.8V311.3z M1000.6,306.3h-1.3v1.3h1.3V306.3z M1003.4,306.3h-1.3v1.3
			h1.3V306.3z"/>
		<path d="M1012.7,313.9c-0.1-1.5-0.8-1.9-2.1-1.9c-1.1,0-2.2,0.3-2.3,1.6h-1.1c0.3-1.9,1.7-2.6,3.4-2.6c2,0,3.2,0.9,3.2,3v4.9h2.8
			v1h-9.7v-1h5.7V313.9z"/>
		<path d="M1019.7,318.9h6.8v1h-10v-1h2.1v-3.1c0-2.4,1.4-4.8,4-4.8c1.8,0,3.4,1.1,3.4,3h-1.1c-0.1-1.4-1.1-2-2.5-2
			c-1.7,0-2.7,1.7-2.7,3.8V318.9z"/>
		<path d="M1032.5,319.9c-2.9,0-3.2-2.6-3.2-3.6v-9.3h1.1v9.5c0,1.6,0.9,2.5,2.4,2.5h1v1H1032.5z"/>
		<path d="M1033.6,319.9v-1h1.8c1.5,0,2.4-0.9,2.4-2.5v-4.8h1.1v4.4c0,1.6,0.8,3.1,2.6,3.1c1.5,0,2.4-0.9,2.4-2.5v-5h1.1v4.4
			c0,1.6,0.8,3.1,2.6,3.1c1.5,0,2.4-0.9,2.4-2.5V311h1.1v5.3c0.2,1.4,0.9,2.6,2.6,2.6h1v1h-0.9c-1.4,0-2.6-1-2.9-1.7l-0.1-0.1
			c-0.3,1-1.1,2-2.9,2c-1.4,0-2.4-0.9-3.1-2c-0.4,1.2-1.5,2-2.9,2c-1.2,0-2.2-0.5-2.8-1.6c-0.1-0.2-0.2-0.3-0.3-0.5
			c-0.3,1-1.1,1.9-2.9,1.9H1033.6z"/>
		<path d="M1055,318.9c0.7,0,2.3-0.4,2.4-2.4c0.1-2.2,1.5-4.6,4.2-4.6c2.8,0,4.1,2.4,4.2,4.5c0.2,1.3,0.9,2.5,2.6,2.5h1v1h-0.9
			c-1.4,0-2.6-1-2.9-1.7c-0.5,1.8-1.9,3.2-4,3.2c-1.9,0-3.3-1.2-3.9-2.7c-0.4,0.6-1.2,1.2-2.6,1.2h-0.9v-1H1055z M1061.6,312.8
			c-2.2,0-3,2.1-3,3.8c0,1.7,0.9,3.8,3,3.8c2.2,0,3.1-2.1,3.1-3.8C1064.7,315,1063.8,312.8,1061.6,312.8z"/>
		<path d="M1069.3,319.9v-1h1.7c1.5,0,2.4-0.9,2.4-2.5v-9.5h1.1v9.3c0,1-0.2,3.6-3.2,3.6H1069.3z"/>
	</g>
	<g>
		<path d="M790,254.6l4.6-12.9h3.2l-2.7,12.9H790z M801.6,254.6l4.6-12.9h3.3l-2.7,12.9H801.6z"/>
		<path d="M838.3,258.2h3.8v15.5c0.2,5.6,3.2,9.9,9.5,9.9h2.9v3.6h-2.2c-4.6,0-8.3-2.5-10.2-5.3v5.4c0,6.5-5.6,12-12.8,12
			c-2.9,0-6.2-1.4-6.9-1.9c0,0-0.2-1.8-0.4-3.5c2.9,1.6,5.9,1.8,6.9,1.8c4.9,0,8.8-3,9.5-8.4V258.2z"/>
		<path d="M854.1,287.2v-3.6h35.3l0.1-4c0.1-9.3-4.1-20.1-15.7-20.1c-6,0-10.4,2.7-11.2,8.3H859c0.6-8.2,7.4-11.8,14.8-11.8
			c13.7,0,19.5,11.2,19.5,23.7v4h10.4v3.6H854.1z M875.9,299.3h-4.4v-4.8h4.4V299.3z"/>
		<path d="M937.4,268.4c-0.1,7.5-4.3,12.2-9,14.9c0.8,0.2,1.4,0.3,1.7,0.3h14.4v3.6h-13.2c-1.2,0-4.1-0.4-7.5-1.6
			c-3.3,1.2-6.4,1.6-7.5,1.6H903v-3.6h14.4c0.3,0,0.9-0.1,1.8-0.3c-4.8-2.7-9.1-7.4-9.1-14.9c0-7.1,5.1-13.9,13.7-13.9
			C932.3,254.5,937.4,261.3,937.4,268.4z M923.7,281.9c4.5-2,9.8-6.2,9.9-13.4c0-4.8-3.6-10.9-9.9-10.9s-9.9,6.1-9.9,10.9
			C914,275.7,919.2,279.8,923.7,281.9z M925.7,246.4h-4.4v-4.7h4.4V246.4z"/>
		<path d="M944.2,287.2v-3.6h6c5.2,0,8.3-3.1,8.3-8.6v-33.3h3.8v32.7c0,3.6-0.8,12.7-11.1,12.7H944.2z"/>
		<path d="M976.2,287.2h-3.8v-45.5h3.8V287.2z"/>
		<path d="M992.1,241.7l-4.5,12.9h-3.3l2.7-12.9H992.1z M1003.7,241.7l-4.6,12.9h-3.3l2.7-12.9H1003.7z"/>
	</g>
</g>
</svg>
