<svg width="24" height="24" xmlns="http://www.w3.org/2000/svg">

 <g>
  <title>background</title>
  <rect fill="none" id="canvas_background" height="402" width="582" y="-1" x="-1"/>
 </g>
 <g>
  <title>Layer 1</title>
  <path fill="#666666" stroke="null" id="svg_1" d="m16,17l-8,0l0,-1l8,0l0,1zm8,-12l0,13l-4.048,0c-0.404,2.423 -3.486,6 -6.434,6l-9.518,0l0,-6l-4,0l0,-13l4,0l0,-5l16,0l0,5l4,0zm-18,0l12,0l0,-3l-12,0l0,3zm12,9l-12,0l0,8l6.691,0c3.469,0 2,-3.352 2,-3.352s3.309,1.594 3.309,-2l0,-2.648zm4,-7l-20,0l0,9l2,0l0,-4l16,0l0,4l2,0l0,-9zm-9,11l-5,0l0,1l5,0l0,-1zm7.5,-10c-0.276,0 -0.5,0.224 -0.5,0.5s0.224,0.5 0.5,0.5s0.5,-0.224 0.5,-0.5s-0.224,-0.5 -0.5,-0.5z"/>
 </g>
</svg>